<svg width="120" height="40" viewBox="0 0 120 40" fill="none" xmlns="http://www.w3.org/2000/svg">
<rect x="0.5" y="0.5" width="119" height="39" rx="7.5" stroke="#111111"/>
<path d="M24.7689 20.3006C24.7796 19.4659 25.0013 18.6475 25.4134 17.9216C25.8254 17.1956 26.4143 16.5857 27.1254 16.1485C26.6737 15.5034 26.0777 14.9724 25.3849 14.5979C24.6921 14.2233 23.9215 14.0155 23.1343 13.9908C21.455 13.8146 19.8271 14.9957 18.9714 14.9957C18.0991 14.9957 16.7816 14.0083 15.3629 14.0375C14.4452 14.0672 13.5509 14.334 12.767 14.8121C11.9831 15.2901 11.3364 15.9631 10.89 16.7654C8.95595 20.1138 10.3985 25.0349 12.2511 27.7415C13.178 29.0668 14.2613 30.5473 15.6788 30.4948C17.0658 30.4372 17.5839 29.6103 19.2582 29.6103C20.9169 29.6103 21.403 30.4948 22.8492 30.4614C24.3376 30.4372 25.2753 29.1302 26.1697 27.7923C26.8357 26.8479 27.3481 25.8042 27.6881 24.6997C26.8234 24.334 26.0855 23.7218 25.5664 22.9395C25.0472 22.1572 24.7699 21.2394 24.7689 20.3006Z" fill="#111111"/>
<path d="M22.0373 12.2108C22.8488 11.2366 23.2486 9.98445 23.1518 8.72021C21.912 8.85044 20.7667 9.44299 19.9442 10.3798C19.5421 10.8375 19.2341 11.3699 19.0378 11.9467C18.8416 12.5235 18.7609 13.1333 18.8005 13.7412C19.4206 13.7476 20.0341 13.6132 20.5948 13.3481C21.1555 13.083 21.6487 12.6942 22.0373 12.2108Z" fill="#111111"/>
<path d="M42.3022 27.1397H37.5688L36.4321 30.4961H34.4272L38.9106 18.0781H40.9936L45.477 30.4961H43.438L42.3022 27.1397ZM38.0591 25.5908H41.8111L39.9615 20.1436H39.9097L38.0591 25.5908Z" fill="#111111"/>
<path d="M55.1597 25.9698C55.1597 28.7833 53.6538 30.5909 51.3814 30.5909C50.8057 30.621 50.2332 30.4884 49.7294 30.2083C49.2256 29.9281 48.8109 29.5118 48.5327 29.0069H48.4897V33.4913H46.6313V21.4425H48.4302V22.9483H48.4644C48.7553 22.4459 49.1771 22.0317 49.6847 21.7498C50.1923 21.468 50.7669 21.329 51.3472 21.3477C53.645 21.3477 55.1597 23.1641 55.1597 25.9698ZM53.2495 25.9698C53.2495 24.1368 52.3023 22.9317 50.857 22.9317C49.437 22.9317 48.482 24.1622 48.482 25.9698C48.482 27.794 49.437 29.0157 50.857 29.0157C52.3023 29.0157 53.2495 27.8194 53.2495 25.9698Z" fill="#111111"/>
<path d="M65.1245 25.9698C65.1245 28.7833 63.6186 30.5909 61.3462 30.5909C60.7705 30.621 60.198 30.4884 59.6942 30.2083C59.1904 29.9281 58.7757 29.5118 58.4975 29.0069H58.4545V33.4913H56.5961V21.4425H58.395V22.9483H58.4291C58.7201 22.4459 59.1418 22.0317 59.6494 21.7498C60.1571 21.468 60.7316 21.329 61.312 21.3477C63.6098 21.3477 65.1245 23.1641 65.1245 25.9698ZM63.2143 25.9698C63.2143 24.1368 62.267 22.9317 60.8217 22.9317C59.4018 22.9317 58.4467 24.1622 58.4467 25.9698C58.4467 27.794 59.4018 29.0157 60.8217 29.0157C62.2671 29.0157 63.2143 27.8194 63.2143 25.9698Z" fill="#111111"/>
<path d="M71.7105 27.0362C71.8482 28.2676 73.0445 29.0762 74.6792 29.0762C76.2456 29.0762 77.3726 28.2676 77.3726 27.1572C77.3726 26.1934 76.6929 25.6162 75.0835 25.2207L73.4742 24.833C71.1939 24.2822 70.1353 23.2158 70.1353 21.4854C70.1353 19.3428 72.0025 17.8711 74.6538 17.8711C77.2778 17.8711 79.0767 19.3428 79.1372 21.4854H77.2612C77.1489 20.2461 76.1245 19.4981 74.6274 19.4981C73.1304 19.4981 72.106 20.2549 72.106 21.3565C72.106 22.2344 72.7603 22.751 74.3608 23.1465L75.729 23.4824C78.2769 24.0849 79.3355 25.1084 79.3355 26.9248C79.3355 29.248 77.4849 30.7031 74.5415 30.7031C71.7876 30.7031 69.9282 29.2822 69.8081 27.0361L71.7105 27.0362Z" fill="#111111"/>
<path d="M83.3462 19.2998V21.4424H85.0679V22.9141H83.3462V27.9053C83.3462 28.6807 83.6909 29.042 84.4477 29.042C84.6521 29.0384 84.8562 29.0241 85.0591 28.999V30.4619C84.7188 30.5255 84.3729 30.5543 84.0268 30.5478C82.1938 30.5478 81.479 29.8593 81.479 28.1035V22.9141H80.1626V21.4424H81.479V19.2998H83.3462Z" fill="#111111"/>
<path d="M86.065 25.9697C86.065 23.1211 87.7427 21.3311 90.3589 21.3311C92.9839 21.3311 94.6539 23.1211 94.6539 25.9697C94.6539 28.8262 92.9927 30.6084 90.3589 30.6084C87.7261 30.6084 86.065 28.8262 86.065 25.9697ZM92.7603 25.9697C92.7603 24.0156 91.8648 22.8623 90.3589 22.8623C88.8531 22.8623 87.9585 24.0244 87.9585 25.9697C87.9585 27.9316 88.8531 29.0762 90.3589 29.0762C91.8648 29.0762 92.7603 27.9316 92.7603 25.9697Z" fill="#111111"/>
<path d="M96.186 21.4424H97.9585V22.9834H98.0015C98.1214 22.5021 98.4034 22.0768 98.8 21.7789C99.1966 21.481 99.6836 21.3287 100.179 21.3476C100.393 21.3469 100.607 21.3702 100.816 21.417V23.1553C100.546 23.0726 100.264 23.0347 99.981 23.043C99.711 23.032 99.4418 23.0796 99.192 23.1825C98.9421 23.2854 98.7175 23.4411 98.5335 23.639C98.3496 23.8369 98.2106 24.0723 98.1262 24.3289C98.0417 24.5856 98.0139 24.8575 98.0444 25.126V30.4961H96.186L96.186 21.4424Z" fill="#111111"/>
<path d="M109.384 27.8369C109.134 29.4805 107.534 30.6084 105.486 30.6084C102.852 30.6084 101.217 28.8437 101.217 26.0127C101.217 23.1729 102.861 21.3311 105.408 21.3311C107.913 21.3311 109.488 23.0518 109.488 25.7969V26.4336H103.093V26.5459C103.064 26.8791 103.105 27.2148 103.216 27.5306C103.326 27.8464 103.502 28.1352 103.732 28.3778C103.963 28.6203 104.242 28.8111 104.552 28.9374C104.861 29.0637 105.195 29.1226 105.529 29.1103C105.968 29.1515 106.409 29.0498 106.785 28.8203C107.162 28.5909 107.455 28.246 107.62 27.8369L109.384 27.8369ZM103.102 25.1348H107.628C107.645 24.8352 107.6 24.5354 107.495 24.2541C107.39 23.9729 107.229 23.7164 107.02 23.5006C106.812 23.2849 106.561 23.1145 106.283 23.0003C106.006 22.8861 105.708 22.8305 105.408 22.8369C105.105 22.8351 104.805 22.8933 104.525 23.008C104.245 23.1227 103.99 23.2918 103.776 23.5054C103.562 23.7191 103.392 23.973 103.276 24.2527C103.16 24.5323 103.101 24.8321 103.102 25.1348Z" fill="#111111"/>
<path d="M37.1719 11.4961H37.9531C38.3464 11.4961 38.651 11.5794 38.8672 11.7461C39.0833 11.9102 39.1914 12.1354 39.1914 12.4219V12.4297C39.1914 12.6146 39.1406 12.7786 39.0391 12.9219C38.9375 13.0625 38.7956 13.1719 38.6133 13.25C38.4336 13.3281 38.2214 13.3672 37.9766 13.3672C37.7396 13.3672 37.5299 13.3333 37.3477 13.2656C37.1654 13.1953 37.0195 13.0964 36.9102 12.9688C36.8008 12.8385 36.737 12.6849 36.7188 12.5078L36.7148 12.4844H35.8594V12.5234C35.8828 12.8464 35.9857 13.1289 36.168 13.3711C36.3503 13.6133 36.5964 13.8021 36.9062 13.9375C37.2161 14.0703 37.5729 14.1367 37.9766 14.1367C38.375 14.1367 38.7331 14.0638 39.0508 13.918C39.3685 13.7721 39.6198 13.5742 39.8047 13.3242C39.9922 13.0742 40.0859 12.7904 40.0859 12.4727V12.4648C40.0859 12.069 39.9674 11.7513 39.7305 11.5117C39.4961 11.2721 39.1966 11.1341 38.832 11.0977V11.0312C39.1445 10.9583 39.3984 10.8047 39.5938 10.5703C39.7891 10.3333 39.8867 10.0599 39.8867 9.75V9.74219C39.8867 9.44271 39.806 9.17969 39.6445 8.95312C39.4831 8.72656 39.2604 8.54948 38.9766 8.42188C38.6953 8.29167 38.3698 8.22656 38 8.22656C37.6146 8.22656 37.2773 8.29036 36.9883 8.41797C36.7018 8.54297 36.474 8.72396 36.3047 8.96094C36.1354 9.19531 36.0378 9.47396 36.0117 9.79688L36.0039 9.85938H36.8477V9.83203C36.8685 9.65495 36.9258 9.50521 37.0195 9.38281C37.1159 9.25781 37.2448 9.16276 37.4062 9.09766C37.5677 9.02995 37.7552 8.99609 37.9688 8.99609C38.1901 8.99609 38.3789 9.03125 38.5352 9.10156C38.6914 9.16927 38.8112 9.26562 38.8945 9.39062C38.9779 9.51302 39.0195 9.66016 39.0195 9.83203V9.83984C39.0195 10.1107 38.9206 10.332 38.7227 10.5039C38.5247 10.6732 38.2604 10.7578 37.9297 10.7578H37.1719V11.4961Z" fill="#111111"/>
<path d="M40.7617 14H41.6836L43.2383 9.35156H43.5039V8.36328H42.7969L40.7617 14ZM41.7422 12.4766H44.8008L44.5547 11.7734H41.9883L41.7422 12.4766ZM44.8555 14H45.7773L43.7461 8.36328H43.3047V9.35156L44.8555 14Z" fill="#111111"/>
<path d="M47.2734 14H49.1562C49.5573 14 49.901 13.9362 50.1875 13.8086C50.474 13.681 50.694 13.4987 50.8477 13.2617C51.0039 13.0221 51.082 12.7383 51.082 12.4102V12.4023C51.082 12.1576 51.0286 11.9388 50.9219 11.7461C50.8151 11.5508 50.6667 11.3919 50.4766 11.2695C50.2865 11.1471 50.0638 11.0729 49.8086 11.0469V10.9805C49.9961 10.9492 50.1641 10.875 50.3125 10.7578C50.4609 10.6406 50.5794 10.4974 50.668 10.3281C50.7565 10.1562 50.8008 9.97135 50.8008 9.77344V9.76562C50.8008 9.47917 50.7331 9.23177 50.5977 9.02344C50.4622 8.8125 50.2669 8.64974 50.0117 8.53516C49.7591 8.42057 49.457 8.36328 49.1055 8.36328H47.2734V9.07812H48.8984C49.224 9.07812 49.4766 9.15234 49.6562 9.30078C49.8359 9.44661 49.9258 9.65234 49.9258 9.91797V9.92578C49.9258 10.1992 49.8268 10.4076 49.6289 10.5508C49.431 10.6914 49.138 10.7617 48.75 10.7617H47.2734V11.4297H48.9258C49.2018 11.4297 49.4323 11.4648 49.6172 11.5352C49.8047 11.6029 49.9453 11.7044 50.0391 11.8398C50.1328 11.9753 50.1797 12.1445 50.1797 12.3477V12.3555C50.1797 12.6576 50.0781 12.888 49.875 13.0469C49.6719 13.2057 49.3724 13.2852 48.9766 13.2852H47.2734V14ZM46.8359 14H47.7109V8.36328H46.8359V14Z" fill="#111111"/>
<path d="M51.7773 14H52.6992L54.2539 9.35156H54.5195V8.36328H53.8125L51.7773 14ZM52.7578 12.4766H55.8164L55.5703 11.7734H53.0039L52.7578 12.4766ZM55.8711 14H56.793L54.7617 8.36328H54.3203V9.35156L55.8711 14Z" fill="#111111"/>
<path d="M57.8516 14H58.7266V11.5039H61.6172V14H62.4961V8.36328H61.6172V10.7461H58.7266V8.36328H57.8516V14Z" fill="#111111"/>
<path d="M65.4219 14H66.2969V9.12109H68.0703V8.36328H63.6484V9.12109H65.4219V14Z" fill="#111111"/>
<path d="M68.207 14H69.1289L70.6836 9.35156H70.9492V8.36328H70.2422L68.207 14ZM69.1875 12.4766H72.2461L72 11.7734H69.4336L69.1875 12.4766ZM72.3008 14H73.2227L71.1914 8.36328H70.75V9.35156L72.3008 14Z" fill="#111111"/>
<path d="M78.082 10.7578V8.36328H77.2188V10.7578H77.0117L74.9922 8.36328H73.9648L76.3516 11.1211V11.0469L73.7852 14H74.8633L77.0078 11.4961H77.2188V14H78.082V11.4961H78.2891L80.4375 14H81.5273L78.9492 11.0312V11.1016L81.3242 8.36328H80.3086L78.2891 10.7578H78.082Z" fill="#111111"/>
<path d="M82.5234 14H83.3711L86.4531 9.51172L85.8594 9.82812H86.3047V14H87.1758V8.36328H86.3281L83.25 12.8633L83.8359 12.5508H83.3945V8.36328H82.5234V14Z" fill="#111111"/>
<path d="M90.1016 14H90.9766V9.12109H92.75V8.36328H88.3281V9.12109H90.1016V14Z" fill="#111111"/>
<path d="M93.8984 14H94.7461L97.8281 9.51172L97.2344 9.82812H97.6797V14H98.5508V8.36328H97.7031L94.625 12.8633L95.2109 12.5508H94.7695V8.36328H93.8984V14Z" fill="#111111"/>
<path d="M103.195 11.4961H103.977C104.37 11.4961 104.674 11.5794 104.891 11.7461C105.107 11.9102 105.215 12.1354 105.215 12.4219V12.4297C105.215 12.6146 105.164 12.7786 105.062 12.9219C104.961 13.0625 104.819 13.1719 104.637 13.25C104.457 13.3281 104.245 13.3672 104 13.3672C103.763 13.3672 103.553 13.3333 103.371 13.2656C103.189 13.1953 103.043 13.0964 102.934 12.9688C102.824 12.8385 102.76 12.6849 102.742 12.5078L102.738 12.4844H101.883V12.5234C101.906 12.8464 102.009 13.1289 102.191 13.3711C102.374 13.6133 102.62 13.8021 102.93 13.9375C103.24 14.0703 103.596 14.1367 104 14.1367C104.398 14.1367 104.757 14.0638 105.074 13.918C105.392 13.7721 105.643 13.5742 105.828 13.3242C106.016 13.0742 106.109 12.7904 106.109 12.4727V12.4648C106.109 12.069 105.991 11.7513 105.754 11.5117C105.52 11.2721 105.22 11.1341 104.855 11.0977V11.0312C105.168 10.9583 105.422 10.8047 105.617 10.5703C105.812 10.3333 105.91 10.0599 105.91 9.75V9.74219C105.91 9.44271 105.829 9.17969 105.668 8.95312C105.507 8.72656 105.284 8.54948 105 8.42188C104.719 8.29167 104.393 8.22656 104.023 8.22656C103.638 8.22656 103.301 8.29036 103.012 8.41797C102.725 8.54297 102.497 8.72396 102.328 8.96094C102.159 9.19531 102.061 9.47396 102.035 9.79688L102.027 9.85938H102.871V9.83203C102.892 9.65495 102.949 9.50521 103.043 9.38281C103.139 9.25781 103.268 9.16276 103.43 9.09766C103.591 9.02995 103.779 8.99609 103.992 8.99609C104.214 8.99609 104.402 9.03125 104.559 9.10156C104.715 9.16927 104.835 9.26562 104.918 9.39062C105.001 9.51302 105.043 9.66016 105.043 9.83203V9.83984C105.043 10.1107 104.944 10.332 104.746 10.5039C104.548 10.6732 104.284 10.7578 103.953 10.7578H103.195V11.4961Z" fill="#111111"/>
</svg>
