<svg width="135" height="40" viewBox="0 0 135 40" fill="none" xmlns="http://www.w3.org/2000/svg">
<rect x="0.5" y="0.5" width="134" height="39" rx="7.5" stroke="#111111"/>
<path fill-rule="evenodd" clip-rule="evenodd" d="M26.6973 7.33325H15.628C10.4093 7.33325 8.5 9.24259 8.5 14.4613V25.5386C8.5 30.7573 10.4093 32.6666 15.628 32.6666H26.6973C31.916 32.6666 33.828 30.7573 33.828 25.5386V14.4613C33.8333 9.24259 31.924 7.33325 26.6973 7.33325ZM13.2521 20H13.9241V23.3147H13.2521V21.968H11.7347V23.3147H11.0627V20H11.7347V21.3333H13.2521V20ZM17.0387 21.896C17.0387 22.4293 16.7721 22.7227 16.2867 22.7227C15.8014 22.7227 15.5294 22.4293 15.5294 21.8667V20H14.8574V21.8933C14.8574 22.824 15.3747 23.3573 16.2761 23.3573C17.1774 23.3573 17.7107 22.824 17.7107 21.864V20H17.0387V21.896ZM24.0521 20H23.5001L22.7534 22.28L22.0201 20H21.3054L22.4601 23.3147H23.0174L23.7667 21.1387L24.5187 23.3147H25.0814L26.2361 20H25.5374L24.8041 22.2773L24.0521 20ZM27.4387 21.8853H28.6627V21.2853H27.4387V20.608H29.2147V20H26.7774V23.3067H29.2787V22.7093H27.4387V21.8853ZM30.0787 23.3067H30.7427V20H30.0787V23.3067ZM19.0387 22.6213L18.7374 23.3093H18.0521L19.5001 20H20.0921L21.5454 23.3093H20.8521L20.5667 22.624L19.0387 22.6213ZM19.2894 22.024H20.3001L19.7934 20.84L19.2894 22.024ZM17.9224 14.5485C18.7129 15.339 19.7848 15.7834 20.9028 15.7841C22.0207 15.7834 23.0927 15.339 23.8832 14.5485C24.6737 13.758 25.1181 12.6861 25.1188 11.5681H24.5241C24.5241 12.5286 24.1426 13.4497 23.4634 14.1288C22.7843 14.8079 21.8632 15.1894 20.9028 15.1894C19.9423 15.1894 19.0212 14.8079 18.3421 14.1288C17.663 13.4497 17.2814 12.5286 17.2814 11.5681H16.6868C16.6875 12.6861 17.1319 13.758 17.9224 14.5485Z" fill="#111111"/>
<path fill-rule="evenodd" clip-rule="evenodd" d="M91.572 17.7494V28.0427C91.572 29.5449 92.2662 30.3005 93.6547 30.3094C93.913 30.3074 94.1708 30.2842 94.4254 30.24C94.6613 30.2038 94.8927 30.143 95.116 30.0587L94.8814 28.6294C94.7081 28.6817 94.5289 28.7122 94.348 28.72C94.2365 28.7297 94.1243 28.7139 94.0199 28.6737C93.9155 28.6335 93.8216 28.57 93.7454 28.488C93.5945 28.2501 93.5278 27.9684 93.556 27.688V17.5894L91.572 17.7494ZM71.8146 27.536C72.2563 28.4019 72.9486 29.1147 73.8013 29.5814C74.7397 30.0789 75.7902 30.3268 76.852 30.3014C77.5897 30.3004 78.3251 30.2163 79.044 30.0507C79.769 29.8878 80.4744 29.6473 81.148 29.3334V24.4027H76.5053V25.952H79.2093V28.3307C78.8556 28.4596 78.4904 28.5543 78.1186 28.6134C77.7345 28.6781 77.3456 28.7111 76.956 28.712C76.2041 28.7429 75.4605 28.5458 74.8226 28.1467C74.2627 27.7734 73.8308 27.2372 73.5853 26.6107C73.3149 25.9028 73.1827 25.1497 73.196 24.392C73.1716 23.5511 73.3452 22.7162 73.7026 21.9547C74.0134 21.3126 74.5106 20.7792 75.1293 20.424C75.7813 20.0622 76.5171 19.8783 77.2626 19.8907C78.3189 19.9134 79.3567 20.1722 80.3 20.648L80.8173 19.1147C80.2727 18.8494 79.7003 18.6455 79.1106 18.5067C78.4802 18.3551 77.8338 18.2799 77.1853 18.2827C76.116 18.2673 75.0581 18.5039 74.0973 18.9734C73.1831 19.4312 72.4256 20.1506 71.9213 21.04C71.3628 22.065 71.0867 23.22 71.1213 24.3867C71.0932 25.4772 71.3311 26.5582 71.8146 27.536ZM44.3001 27.0026H48.9908L50.1668 30.1333H52.3241L47.6334 18.4373H45.6868L41.1001 30.1333H43.1614L44.3001 27.0026ZM48.3908 25.4026H44.8974L46.1401 22.0373C46.3161 21.5199 46.4814 21.0159 46.6334 20.5199C46.7988 21.0799 46.9694 21.5919 47.1401 22.0533L48.3908 25.4026ZM53.0894 21.4213C53.132 22.1982 53.1534 22.9093 53.1534 23.5547L53.1374 33.7707L55.132 33.6V29.992C55.6951 30.1893 56.2874 30.2903 56.884 30.2907C57.6422 30.3055 58.3901 30.1128 59.0467 29.7333C59.6849 29.3455 60.192 28.7751 60.5027 28.096C60.874 27.2777 61.0563 26.3864 61.036 25.488C61.0638 24.6641 60.9081 23.8443 60.58 23.088C60.3462 22.5379 59.9536 22.07 59.4525 21.7441C58.9513 21.4182 58.3644 21.2492 57.7667 21.2587C57.2569 21.2654 56.7547 21.3823 56.2944 21.6014C55.8341 21.8205 55.4266 22.1366 55.1 22.528C55.0742 22.1566 55.0262 21.787 54.956 21.4213H53.0894ZM59.0067 25.6C59.0067 26.6667 58.8014 27.4667 58.396 28C58.1896 28.2643 57.9221 28.4745 57.6164 28.6125C57.3107 28.7504 56.9761 28.8121 56.6414 28.792C56.3778 28.791 56.115 28.7624 55.8574 28.7067C55.6178 28.6585 55.385 28.5815 55.164 28.4773V23.8107C55.4377 23.521 55.7532 23.2738 56.1 23.0773C56.4265 22.8976 56.794 22.8057 57.1667 22.8107C57.4254 22.804 57.6819 22.8602 57.9141 22.9745C58.1464 23.0888 58.3474 23.2576 58.5 23.4667C58.8378 23.9165 59.0067 24.6276 59.0067 25.6ZM62.2493 23.5547C62.2493 22.9093 62.228 22.1982 62.1853 21.4213H64.052C64.1243 21.7867 64.1733 22.1564 64.1986 22.528C64.9755 21.6818 65.8644 21.2587 66.8653 21.2587C67.463 21.2492 68.0499 21.4182 68.5511 21.7441C69.0522 22.07 69.4448 22.5379 69.6786 23.088C70.0067 23.8443 70.1624 24.6641 70.1346 25.488C70.1591 26.3853 69.9814 27.2767 69.6146 28.096C69.3033 28.7755 68.7951 29.3459 68.156 29.7333C67.4995 30.1131 66.7516 30.3059 65.9933 30.2907C65.3967 30.2903 64.8044 30.1893 64.2413 29.992V33.6L62.2466 33.7707L62.2493 23.5547ZM67.5 28C67.9053 27.4542 68.108 26.6542 68.108 25.6C68.108 24.6276 67.94 23.9165 67.604 23.4667C67.4513 23.2576 67.2503 23.0888 67.0181 22.9745C66.7858 22.8602 66.5294 22.804 66.2706 22.8107C65.898 22.8062 65.5306 22.898 65.204 23.0773C64.8572 23.2738 64.5417 23.521 64.268 23.8107V28.4773C64.4893 28.5808 64.722 28.6577 64.9613 28.7067C65.2189 28.7624 65.4817 28.791 65.7453 28.792C66.08 28.8116 66.4145 28.7498 66.7201 28.6118C67.0256 28.4739 67.2932 28.264 67.5 28ZM88.2334 30.1333C88.1579 29.7525 88.1116 29.3665 88.0947 28.9786C87.7621 29.3668 87.355 29.6842 86.8974 29.912C86.3812 30.1734 85.8092 30.3052 85.2307 30.296C84.7573 30.3019 84.2888 30.2008 83.86 30C83.4528 29.8079 83.112 29.4987 82.8814 29.112C82.6266 28.673 82.5 28.1713 82.516 27.664C82.5011 27.2792 82.576 26.8962 82.7347 26.5453C82.8935 26.1945 83.1318 25.8854 83.4307 25.6426C84.0387 25.1378 85.0529 24.8862 86.4734 24.888C87.0025 24.8877 87.5309 24.9252 88.0547 25V24.8293C88.0547 24.0613 87.8911 23.5191 87.564 23.2026C87.173 22.8662 86.6655 22.6967 86.1507 22.7306C85.6896 22.7363 85.231 22.799 84.7854 22.9173C84.3439 23.0238 83.9135 23.172 83.5 23.36L83.1854 21.9093C83.6376 21.7163 84.1073 21.5672 84.588 21.464C85.1927 21.3273 85.8108 21.2593 86.4307 21.2613C87.0875 21.2434 87.741 21.3604 88.3507 21.6053C88.887 21.8424 89.3237 22.2593 89.5854 22.784C89.9126 23.4865 90.0654 24.2577 90.0307 25.032V28.4986C90.0307 28.8542 90.052 29.4 90.0947 30.136L88.2334 30.1333ZM87.0387 28.5333C87.4231 28.3547 87.7684 28.1018 88.0547 27.7893V26.1893C87.6121 26.137 87.167 26.1076 86.7214 26.1013C85.8983 26.1013 85.3285 26.2346 85.012 26.5013C84.8577 26.6317 84.735 26.7955 84.6532 26.9803C84.5714 27.1651 84.5327 27.366 84.54 27.568C84.5256 27.7425 84.5488 27.918 84.6082 28.0827C84.6675 28.2474 84.7616 28.3975 84.884 28.5226C85.144 28.7419 85.4779 28.8535 85.8174 28.8346C86.2421 28.8282 86.6597 28.7252 87.0387 28.5333ZM96.5347 28.0427V17.7494L98.5213 17.5894V27.688C98.4931 27.9684 98.5598 28.2501 98.7107 28.488C98.7869 28.57 98.8808 28.6335 98.9852 28.6737C99.0896 28.7139 99.2018 28.7297 99.3133 28.72C99.4942 28.7122 99.6734 28.6817 99.8467 28.6294L100.079 30.0587C99.8563 30.143 99.6257 30.2038 99.3907 30.24C99.1352 30.2843 98.8766 30.3075 98.6173 30.3094C97.2307 30.3005 96.5364 29.5449 96.5347 28.0427ZM102.54 26.032H108.239V25.496C108.249 24.7653 108.113 24.0399 107.839 23.3627C107.589 22.741 107.162 22.2061 106.612 21.824C106.002 21.4218 105.281 21.2195 104.551 21.2454C103.815 21.2309 103.089 21.4211 102.455 21.7947C101.836 22.1774 101.343 22.7339 101.039 23.3947C100.682 24.1734 100.507 25.0236 100.529 25.88C100.507 26.6974 100.671 27.5091 101.009 28.2534C101.316 28.8958 101.818 29.4244 102.444 29.7627C103.167 30.136 103.972 30.3195 104.785 30.296C105.92 30.3132 107.044 30.0705 108.071 29.5867L107.633 28.2214C107.236 28.3897 106.825 28.5235 106.404 28.6214C105.992 28.7184 105.571 28.7685 105.148 28.7707C103.5 28.7707 102.631 27.8578 102.54 26.032ZM105.761 23.2027C106.112 23.6478 106.3 24.199 106.295 24.7654L102.588 24.76C102.641 24.1851 102.871 23.6408 103.247 23.2027C103.408 23.03 103.604 22.8933 103.822 22.8014C104.04 22.7095 104.274 22.6645 104.511 22.6694C104.746 22.661 104.979 22.7044 105.196 22.7966C105.412 22.8888 105.605 23.0274 105.761 23.2027ZM109.748 23.6106C109.748 23.1333 109.724 22.4026 109.681 21.424H111.548C111.58 21.6666 111.609 21.9573 111.641 22.2906C111.673 22.624 111.689 22.9013 111.7 23.112C111.901 22.7721 112.129 22.4492 112.383 22.1467C112.603 21.888 112.869 21.672 113.167 21.5093C113.48 21.3401 113.832 21.2547 114.188 21.2613C114.458 21.2547 114.728 21.288 114.988 21.36L114.737 23.088C114.425 22.9976 114.097 22.9746 113.775 23.0206C113.454 23.0666 113.145 23.1804 112.871 23.3546C112.429 23.6827 112.045 24.0809 111.732 24.5333V30.1333H109.748V23.6106ZM115.38 33.5254C115.614 33.6014 115.854 33.6594 116.097 33.6987C116.406 33.7514 116.72 33.7773 117.033 33.7761C117.63 33.7928 118.222 33.6647 118.759 33.4027C119.259 33.133 119.684 32.7425 119.996 32.2667C120.404 31.6369 120.733 30.9588 120.975 30.2481L124.175 21.4241H122.167L120.54 26.3734C120.335 27.0027 120.159 27.6321 120.007 28.2614C119.878 27.6088 119.709 26.9649 119.5 26.3334L117.868 21.4241H115.735L118.948 30.2081L118.817 30.5307C118.383 31.6667 117.722 32.2347 116.833 32.2347C116.638 32.2333 116.444 32.2155 116.252 32.1814C116.08 32.1537 115.91 32.1172 115.743 32.0721L115.38 33.5254Z" fill="#111111"/>
<path d="M42.2486 12.8729C41.8578 12.6054 41.5882 12.2125 41.444 11.6901L42.3238 11.3432C42.399 11.6671 42.5453 11.9241 42.7627 12.108C42.98 12.294 43.237 12.386 43.5317 12.386C43.8514 12.386 44.1231 12.2857 44.3488 12.0851C44.5745 11.8844 44.6873 11.6378 44.6873 11.3411C44.6873 11.1488 44.633 10.9754 44.5222 10.8145C44.4115 10.6557 44.261 10.5282 44.0709 10.4362C43.8786 10.3443 43.6717 10.2962 43.4439 10.2962H42.9298V9.46032H43.3917C43.7051 9.46032 43.9664 9.37464 44.1753 9.20328C44.3843 9.03193 44.4888 8.80205 44.4888 8.51158C44.4888 8.25663 44.3927 8.04556 44.1983 7.87629C44.004 7.70911 43.7616 7.62343 43.4711 7.62343C43.2099 7.62343 42.9904 7.70075 42.8107 7.85748C42.631 8.01421 42.5056 8.2002 42.4367 8.41336L41.5924 8.06646C41.7136 7.72374 41.9351 7.42072 42.2569 7.15741C42.5788 6.89411 42.9863 6.76245 43.4794 6.76245C43.8556 6.76245 44.1921 6.83559 44.4846 6.98396C44.7772 7.13234 45.0071 7.33504 45.1722 7.59208C45.3372 7.85121 45.4208 8.14169 45.4208 8.4656C45.4208 9.06954 45.1575 9.51466 44.6288 9.80513V9.85738C44.9256 9.99112 45.1659 10.1855 45.3519 10.4404C45.5379 10.6954 45.6298 11.0067 45.6298 11.3724C45.6298 11.7382 45.5379 12.0474 45.356 12.3379C45.1721 12.6284 44.9214 12.8562 44.6037 13.0213C44.2861 13.1864 43.9287 13.2699 43.5338 13.2699C43.0699 13.2699 42.6415 13.1362 42.2507 12.8708L42.2486 12.8729Z" fill="#111111"/>
<path d="M48.5262 6.90454H49.6129L51.9701 13.1341H50.9169L50.3422 11.5333H47.8011L47.2264 13.1341H46.1732L48.522 6.90454H48.5262ZM50.0308 10.6452L49.335 8.73517L49.1009 8.02256H49.0487L48.8146 8.73517L48.1187 10.6452H50.0329H50.0308Z" fill="#111111"/>
<path d="M52.9105 6.90454H55.2427C55.5729 6.90454 55.8801 6.97768 56.1643 7.12188C56.4485 7.26607 56.6742 7.4646 56.8393 7.71746C57.0043 7.97032 57.0879 8.25034 57.0879 8.55754C57.0879 8.86473 57.0106 9.13222 56.8581 9.36209C56.7034 9.59197 56.5007 9.7675 56.2458 9.88871V9.9326C56.5697 10.0434 56.8288 10.2252 57.0211 10.4801C57.2133 10.7351 57.3074 11.036 57.3074 11.385C57.3074 11.734 57.2196 12.0307 57.042 12.294C56.8643 12.5573 56.6282 12.7642 56.3294 12.9126C56.0305 13.061 55.7045 13.1341 55.3514 13.1341H52.9147V6.90454H52.9105ZM55.1988 9.523C55.4893 9.523 55.7212 9.43523 55.8947 9.2576C56.0681 9.07998 56.1559 8.87727 56.1559 8.64531C56.1559 8.41334 56.0702 8.21273 55.8989 8.04137C55.7275 7.87001 55.506 7.78433 55.2343 7.78433H53.8676V9.52509H55.1988V9.523ZM55.3472 12.246C55.6481 12.246 55.8905 12.154 56.0744 11.9722C56.2583 11.7904 56.3482 11.571 56.3482 11.316C56.3482 11.0611 56.2541 10.8395 56.0661 10.6557C55.878 10.4697 55.6272 10.3777 55.3137 10.3777H53.8697V12.248H55.3493L55.3472 12.246Z" fill="#111111"/>
<path d="M60.1828 6.90454H61.2695L63.6267 13.1341H62.5735L61.9988 11.5333H59.4577L58.883 13.1341H57.8298L60.1787 6.90454H60.1828ZM61.6875 10.6452L60.9916 8.73517L60.7575 8.02256H60.7053L60.4712 8.73517L59.7753 10.6452H61.6895H61.6875Z" fill="#111111"/>
<path d="M64.5692 6.90454H65.5263V9.49793H68.4416V6.90454H69.3903V13.1341H68.4416V10.4028H65.5263V13.1341H64.5692V6.90454Z" fill="#111111"/>
<path d="M72.1112 7.8094H70.3621V6.90454H74.807V7.8094H73.0662V13.1341H72.1091V7.8094H72.1112Z" fill="#111111"/>
<path d="M77.0346 6.90454H78.1213L80.4786 13.1341H79.4253L78.8506 11.5333H76.3095L75.7348 13.1341H74.6816L77.0305 6.90454H77.0346ZM78.5393 10.6452L77.8434 8.73517L77.6093 8.02256H77.5571L77.323 8.73517L76.6271 10.6452H78.5414H78.5393Z" fill="#111111"/>
<path d="M81.0804 13.0819L83.5777 10.081L81.1933 6.95678V6.90454H82.351L84.5515 9.85319H84.6037V6.90454H85.5525V9.85319H85.6047L87.8052 6.90454H88.963V6.95678L86.5786 10.081L89.0758 13.0819V13.1341H87.8491L85.6047 10.3317H85.5525V13.1341H84.6037V10.3317H84.5515L82.2987 13.1341H81.0804V13.0819Z" fill="#111111"/>
<path d="M89.9723 6.90454H90.9211V10.3505L90.8688 11.5522H90.9211L93.713 6.90663H94.7996V13.1362H93.8509V9.6045L93.9031 8.40289H93.8509L91.0151 13.1362H89.9702V6.90663L89.9723 6.90454Z" fill="#111111"/>
<path d="M97.533 7.8094H95.7839V6.90454H100.229V7.8094H98.488V13.1341H97.5309V7.8094H97.533Z" fill="#111111"/>
<path d="M101.221 6.90454H102.17V10.3505L102.118 11.5522H102.17L104.962 6.90663H106.049V13.1362H105.1V9.6045L105.152 8.40289H105.1L102.264 13.1362H101.219V6.90663L101.221 6.90454Z" fill="#111111"/>
<path d="M109.95 12.8729C109.56 12.6054 109.29 12.2125 109.146 11.6901L110.024 11.3432C110.099 11.6671 110.245 11.9241 110.462 12.108C110.68 12.294 110.937 12.386 111.231 12.386C111.551 12.386 111.823 12.2857 112.048 12.0851C112.274 11.8844 112.387 11.6378 112.387 11.3411C112.387 11.1488 112.333 10.9754 112.222 10.8145C112.111 10.6557 111.961 10.5282 111.771 10.4362C111.578 10.3443 111.369 10.2962 111.144 10.2962H110.63V9.46032H111.091C111.405 9.46032 111.666 9.37464 111.875 9.20328C112.084 9.03193 112.188 8.80205 112.188 8.51158C112.188 8.25663 112.092 8.04556 111.898 7.87629C111.704 7.70911 111.461 7.62343 111.171 7.62343C110.91 7.62343 110.69 7.70075 110.51 7.85748C110.331 8.01421 110.205 8.2002 110.136 8.41336L109.292 8.06646C109.413 7.72374 109.635 7.42072 109.959 7.15741C110.281 6.89411 110.688 6.76245 111.181 6.76245C111.557 6.76245 111.894 6.83559 112.186 6.98396C112.479 7.13234 112.709 7.33504 112.874 7.59208C113.039 7.85121 113.123 8.14169 113.123 8.4656C113.123 9.06954 112.859 9.51466 112.331 9.80513V9.85738C112.627 9.99112 112.868 10.1855 113.054 10.4404C113.24 10.6954 113.332 11.0067 113.332 11.3724C113.332 11.7382 113.24 12.0474 113.058 12.3379C112.876 12.6284 112.623 12.8562 112.306 13.0213C111.986 13.1864 111.631 13.2699 111.236 13.2699C110.772 13.2699 110.343 13.1362 109.952 12.8708L109.95 12.8729Z" fill="#111111"/>
</svg>
