<svg width="135" height="40" viewBox="0 0 135 40" fill="none" xmlns="http://www.w3.org/2000/svg">
<rect x="0.5" y="0.5" width="134" height="39" rx="7.5" stroke="#111111"/>
<path d="M68.1344 21.7502C65.7834 21.7502 63.865 23.539 63.865 26.0049C63.865 28.4708 65.7813 30.2576 68.1344 30.2576C70.4874 30.2576 72.4037 28.452 72.4037 26.0049C72.4037 23.5578 70.4874 21.7502 68.1344 21.7502ZM68.1344 28.5816C66.845 28.5816 65.7332 27.5179 65.7332 26.0049C65.7332 24.4919 66.845 23.4262 68.1344 23.4262C69.4238 23.4262 70.5334 24.4731 70.5334 26.0049C70.5334 27.5367 69.4217 28.5816 68.1344 28.5816ZM58.8203 21.7502C56.4694 21.7502 54.551 23.539 54.551 26.0049C54.551 28.4708 56.4673 30.2576 58.8203 30.2576C61.1734 30.2576 63.0897 28.452 63.0897 26.0049C63.0897 23.5578 61.1713 21.7502 58.8203 21.7502ZM58.8203 28.5816C57.5331 28.5816 56.4213 27.5179 56.4213 26.0049C56.4213 24.4919 57.5331 23.4262 58.8203 23.4262C60.1076 23.4262 61.2215 24.4731 61.2215 26.0049C61.2215 27.5367 60.1097 28.5816 58.8203 28.5816ZM47.7426 23.0563V24.8597H52.06C51.9304 25.8754 51.594 26.6151 51.0778 27.1313C50.4488 27.7603 49.4666 28.452 47.7426 28.452C45.0844 28.452 43.0051 26.31 43.0051 23.6519C43.0051 20.9937 45.0823 18.8517 47.7426 18.8517C49.1761 18.8517 50.2231 19.4138 50.9963 20.139L52.269 18.8663C51.1886 17.8361 49.755 17.0461 47.7426 17.0461C44.1022 17.0461 41.0407 20.0115 41.0407 23.6519C41.0407 27.2922 44.1022 30.2576 47.7426 30.2576C49.7069 30.2576 51.1886 29.6118 52.3505 28.404C53.5416 27.2128 53.9136 25.5368 53.9136 24.1827C53.9136 23.7647 53.8823 23.3781 53.8175 23.0563H47.7446H47.7426ZM93.0505 24.4564C92.6953 23.5056 91.617 21.7502 89.4102 21.7502C87.2034 21.7502 85.3999 23.4742 85.3999 26.0049C85.3999 28.3893 87.2034 30.2576 89.6191 30.2576C91.5689 30.2576 92.6953 29.0664 93.1634 28.3726L91.7131 27.4051C91.2283 28.1135 90.57 28.5816 89.6171 28.5816C88.6641 28.5816 87.9891 28.1469 87.5545 27.2943L93.2407 24.9412L93.0484 24.4585L93.0505 24.4564ZM87.2515 25.8754C87.2034 24.2307 88.5241 23.3948 89.475 23.3948C90.2168 23.3948 90.8458 23.7647 91.0548 24.2976L87.2535 25.8774L87.2515 25.8754ZM82.6268 29.9984H84.4951V17.4975H82.6268V29.9984ZM79.5653 22.701H79.5006C79.0826 22.2016 78.276 21.7502 77.2624 21.7502C75.1351 21.7502 73.1874 23.6184 73.1874 26.0196C73.1874 28.4207 75.1371 30.2555 77.2624 30.2555C78.278 30.2555 79.0826 29.8041 79.5006 29.2879H79.5653V29.9002C79.5653 31.5281 78.696 32.3975 77.2938 32.3975C76.1507 32.3975 75.4402 31.5762 75.1518 30.8845L73.5239 31.5616C73.9899 32.69 75.2312 34.0756 77.2938 34.0756C79.4838 34.0756 81.3374 32.7862 81.3374 29.6453V22.0093H79.5653V22.7031V22.701ZM77.4233 28.5816C76.134 28.5816 75.0556 27.5033 75.0556 26.0216C75.0556 24.54 76.134 23.4283 77.4233 23.4283C78.7127 23.4283 79.6949 24.5233 79.6949 26.0216C79.6949 27.52 78.696 28.5816 77.4233 28.5816ZM101.805 17.4996H97.3345V30.0005H99.1986V25.2652H101.805C103.873 25.2652 105.905 23.7668 105.905 21.3824C105.905 18.998 103.871 17.4996 101.805 17.4996ZM101.853 23.5244H99.1986V19.2383H101.853C103.249 19.2383 104.041 20.3939 104.041 21.3803C104.041 22.3667 103.249 23.5223 101.853 23.5223M113.384 21.7272C112.034 21.7272 110.634 22.3228 110.055 23.6393L111.712 24.331C112.065 23.6393 112.726 23.4136 113.417 23.4136C114.383 23.4136 115.363 23.9925 115.38 25.0206V25.1502C115.041 24.958 114.318 24.6675 113.434 24.6675C111.649 24.6675 109.831 25.6476 109.831 27.4824C109.831 29.1563 111.296 30.2325 112.935 30.2325C114.19 30.2325 114.88 29.6704 115.315 29.01H115.38V29.9755H117.181V25.1816C117.181 22.9622 115.526 21.7251 113.386 21.7251M113.16 28.5753C112.548 28.5753 111.695 28.2702 111.695 27.5137C111.695 26.5483 112.757 26.1805 113.674 26.1805C114.493 26.1805 114.88 26.3581 115.38 26.5984C115.235 27.7561 114.239 28.5774 113.16 28.5774M123.743 21.9989L121.603 27.4197H121.538L119.319 21.9989H117.308L120.637 29.5742L118.74 33.7872H120.685L125.816 21.9989H123.741H123.743ZM106.937 29.9964H108.803V17.4954H106.937V29.9964Z" fill="#111111"/>
<path fill-rule="evenodd" clip-rule="evenodd" d="M20.7178 19.4245L20.7179 19.4245L20.7158 19.4224L20.7178 19.4245ZM10.636 30.8528L20.7131 20.1586L25.5344 25.4074L14.0824 32.015L14.0479 32.0365C13.695 32.2417 13.2866 32.3595 12.8479 32.3595C11.8413 32.3595 10.9808 31.7348 10.636 30.8528Z" fill="#111111"/>
<path fill-rule="evenodd" clip-rule="evenodd" d="M31.2311 17.9285L31.4649 17.5389L31.2464 17.9385C31.9874 18.3436 32.4846 19.1197 32.4846 20.0242C32.4846 20.9274 31.9802 21.7136 31.2313 22.1192L26.4068 24.9038L21.2037 19.7026L26.3659 15.1086L31.2239 17.9242L31.2311 17.9285Z" fill="#111111"/>
<path fill-rule="evenodd" clip-rule="evenodd" d="M10.4724 10.3461V29.6146L20.3648 19.7222L10.4724 10.3461Z" fill="#111111"/>
<path fill-rule="evenodd" clip-rule="evenodd" d="M10.641 9.13963L20.7963 19.2929L25.4923 14.5987L14.0782 7.98087C13.7188 7.76486 13.2996 7.64062 12.8499 7.64062C11.8503 7.64062 10.9908 8.26108 10.641 9.13963Z" fill="#111111"/>
<path d="M42.2486 12.8729C41.8578 12.6054 41.5882 12.2125 41.444 11.6901L42.3238 11.3432C42.399 11.6671 42.5453 11.9241 42.7627 12.108C42.98 12.294 43.237 12.386 43.5317 12.386C43.8514 12.386 44.1231 12.2857 44.3488 12.0851C44.5745 11.8844 44.6873 11.6378 44.6873 11.3411C44.6873 11.1488 44.633 10.9754 44.5222 10.8145C44.4115 10.6557 44.261 10.5282 44.0709 10.4362C43.8786 10.3443 43.6717 10.2962 43.4439 10.2962H42.9298V9.46032H43.3917C43.7051 9.46032 43.9664 9.37464 44.1753 9.20328C44.3843 9.03193 44.4888 8.80205 44.4888 8.51158C44.4888 8.25663 44.3927 8.04556 44.1983 7.87629C44.004 7.70911 43.7616 7.62343 43.4711 7.62343C43.2099 7.62343 42.9904 7.70075 42.8107 7.85748C42.631 8.01421 42.5056 8.2002 42.4367 8.41336L41.5924 8.06646C41.7136 7.72374 41.9351 7.42072 42.2569 7.15741C42.5788 6.89411 42.9863 6.76245 43.4794 6.76245C43.8556 6.76245 44.1921 6.83559 44.4846 6.98396C44.7772 7.13234 45.0071 7.33504 45.1722 7.59208C45.3372 7.85121 45.4208 8.14169 45.4208 8.4656C45.4208 9.06954 45.1575 9.51466 44.6288 9.80513V9.85738C44.9256 9.99112 45.1659 10.1855 45.3519 10.4404C45.5379 10.6954 45.6298 11.0067 45.6298 11.3724C45.6298 11.7382 45.5379 12.0474 45.356 12.3379C45.1721 12.6284 44.9214 12.8562 44.6037 13.0213C44.2861 13.1864 43.9287 13.2699 43.5338 13.2699C43.0699 13.2699 42.6415 13.1362 42.2507 12.8708L42.2486 12.8729Z" fill="#111111"/>
<path d="M48.5262 6.90454H49.6129L51.9701 13.1341H50.9169L50.3422 11.5333H47.8011L47.2264 13.1341H46.1732L48.522 6.90454H48.5262ZM50.0308 10.6452L49.335 8.73517L49.1009 8.02256H49.0487L48.8146 8.73517L48.1187 10.6452H50.0329H50.0308Z" fill="#111111"/>
<path d="M52.9105 6.90454H55.2427C55.5729 6.90454 55.8801 6.97768 56.1643 7.12188C56.4485 7.26607 56.6742 7.4646 56.8393 7.71746C57.0043 7.97032 57.0879 8.25034 57.0879 8.55754C57.0879 8.86473 57.0106 9.13222 56.8581 9.36209C56.7034 9.59197 56.5007 9.7675 56.2458 9.88871V9.9326C56.5697 10.0434 56.8288 10.2252 57.0211 10.4801C57.2133 10.7351 57.3074 11.036 57.3074 11.385C57.3074 11.734 57.2196 12.0307 57.042 12.294C56.8643 12.5573 56.6282 12.7642 56.3294 12.9126C56.0305 13.061 55.7045 13.1341 55.3514 13.1341H52.9147V6.90454H52.9105ZM55.1988 9.523C55.4893 9.523 55.7212 9.43523 55.8947 9.2576C56.0681 9.07998 56.1559 8.87727 56.1559 8.64531C56.1559 8.41334 56.0702 8.21273 55.8989 8.04137C55.7275 7.87001 55.506 7.78433 55.2343 7.78433H53.8676V9.52509H55.1988V9.523ZM55.3472 12.246C55.6481 12.246 55.8905 12.154 56.0744 11.9722C56.2583 11.7904 56.3482 11.571 56.3482 11.316C56.3482 11.0611 56.2541 10.8395 56.0661 10.6557C55.878 10.4697 55.6272 10.3777 55.3137 10.3777H53.8697V12.248H55.3493L55.3472 12.246Z" fill="#111111"/>
<path d="M60.1829 6.90454H61.2695L63.6268 13.1341H62.5735L61.9989 11.5333H59.4577L58.883 13.1341H57.8298L60.1787 6.90454H60.1829ZM61.6875 10.6452L60.9916 8.73517L60.7575 8.02256H60.7053L60.4712 8.73517L59.7754 10.6452H61.6896H61.6875Z" fill="#111111"/>
<path d="M64.5692 6.90454H65.5263V9.49793H68.4416V6.90454H69.3903V13.1341H68.4416V10.4028H65.5263V13.1341H64.5692V6.90454Z" fill="#111111"/>
<path d="M72.1112 7.8094H70.3621V6.90454H74.807V7.8094H73.0662V13.1341H72.1091V7.8094H72.1112Z" fill="#111111"/>
<path d="M77.0346 6.90454H78.1213L80.4786 13.1341H79.4253L78.8506 11.5333H76.3095L75.7348 13.1341H74.6816L77.0305 6.90454H77.0346ZM78.5393 10.6452L77.8434 8.73517L77.6093 8.02256H77.5571L77.323 8.73517L76.6271 10.6452H78.5414H78.5393Z" fill="#111111"/>
<path d="M81.0804 13.0819L83.5777 10.081L81.1933 6.95678V6.90454H82.351L84.5515 9.85319H84.6037V6.90454H85.5525V9.85319H85.6047L87.8052 6.90454H88.963V6.95678L86.5786 10.081L89.0758 13.0819V13.1341H87.8491L85.6047 10.3317H85.5525V13.1341H84.6037V10.3317H84.5515L82.2987 13.1341H81.0804V13.0819Z" fill="#111111"/>
<path d="M89.9723 6.90454H90.9211V10.3505L90.8688 11.5522H90.9211L93.713 6.90663H94.7996V13.1362H93.8509V9.6045L93.9031 8.40289H93.8509L91.0151 13.1362H89.9702V6.90663L89.9723 6.90454Z" fill="#111111"/>
<path d="M97.533 7.8094H95.7839V6.90454H100.229V7.8094H98.488V13.1341H97.5309V7.8094H97.533Z" fill="#111111"/>
<path d="M101.221 6.90454H102.17V10.3505L102.118 11.5522H102.17L104.962 6.90663H106.049V13.1362H105.1V9.6045L105.152 8.40289H105.1L102.264 13.1362H101.219V6.90663L101.221 6.90454Z" fill="#111111"/>
<path d="M109.95 12.8729C109.56 12.6054 109.29 12.2125 109.146 11.6901L110.024 11.3432C110.099 11.6671 110.245 11.9241 110.462 12.108C110.68 12.294 110.937 12.386 111.231 12.386C111.551 12.386 111.823 12.2857 112.048 12.0851C112.274 11.8844 112.387 11.6378 112.387 11.3411C112.387 11.1488 112.333 10.9754 112.222 10.8145C112.111 10.6557 111.961 10.5282 111.771 10.4362C111.578 10.3443 111.369 10.2962 111.144 10.2962H110.63V9.46032H111.091C111.405 9.46032 111.666 9.37464 111.875 9.20328C112.084 9.03193 112.188 8.80205 112.188 8.51158C112.188 8.25663 112.092 8.04556 111.898 7.87629C111.704 7.70911 111.461 7.62343 111.171 7.62343C110.91 7.62343 110.69 7.70075 110.51 7.85748C110.331 8.01421 110.205 8.2002 110.136 8.41336L109.292 8.06646C109.413 7.72374 109.635 7.42072 109.959 7.15741C110.281 6.89411 110.688 6.76245 111.181 6.76245C111.557 6.76245 111.894 6.83559 112.186 6.98396C112.479 7.13234 112.709 7.33504 112.874 7.59208C113.039 7.85121 113.123 8.14169 113.123 8.4656C113.123 9.06954 112.859 9.51466 112.331 9.80513V9.85738C112.627 9.99112 112.868 10.1855 113.054 10.4404C113.24 10.6954 113.332 11.0067 113.332 11.3724C113.332 11.7382 113.24 12.0474 113.058 12.3379C112.876 12.6284 112.623 12.8562 112.306 13.0213C111.986 13.1864 111.631 13.2699 111.236 13.2699C110.772 13.2699 110.343 13.1362 109.952 12.8708L109.95 12.8729Z" fill="#111111"/>
</svg>
