<svg width="431" height="335" viewBox="0 0 431 335" fill="none" xmlns="http://www.w3.org/2000/svg">
<mask id="mask0" mask-type="alpha" maskUnits="userSpaceOnUse" x="0" y="0" width="431" height="335">
<path d="M29.2723 259.032C80.8764 362.3 167.791 339.125 232.279 309.413C249.519 301.47 256.248 301.551 282.519 313.482C397.019 365.482 424.368 298.796 430.046 273.758C439.519 231.982 378.019 24.9822 257.019 27.9823C257.019 27.9823 205.51 -4.2933 136.019 0.482081C79.4377 4.37035 59.519 25.9822 25.0191 68.9822C-9.98092 117.982 -7.98095 184.482 29.2723 259.032Z" fill="#EFEEE9"/>
</mask>
<g mask="url(#mask0)">
<path fill-rule="evenodd" clip-rule="evenodd" d="M270.242 62.8321C270.242 60.48 272.149 58.5732 274.501 58.5732H275.619V55.3791C275.619 54.497 276.334 53.782 277.216 53.782H282.386C283.268 53.782 283.983 54.497 283.983 55.3791V58.5732H285.1C287.453 58.5732 289.359 60.48 289.359 62.8321V92.6441C289.359 94.9962 287.453 96.903 285.1 96.903H296.605C294.253 96.903 292.346 94.9962 292.346 92.6441V62.8321C292.346 60.48 294.253 58.5732 296.605 58.5732H297.891V55.3791C297.891 54.497 298.606 53.782 299.488 53.782H304.919C305.801 53.782 306.516 54.497 306.516 55.3791V58.5732H307.802C310.154 58.5732 312.06 60.48 312.06 62.8321V92.6441C312.06 94.9962 310.154 96.903 307.802 96.903H334.839C332.487 96.903 330.58 94.9962 330.58 92.6441V62.8321C330.58 60.48 332.487 58.5732 334.839 58.5732H335.957V55.3791C335.957 54.497 336.672 53.782 337.554 53.782H342.723C343.605 53.782 344.32 54.497 344.32 55.3791V58.5732H345.438C347.79 58.5732 349.697 60.48 349.697 62.8321V92.6441C349.697 94.9962 347.79 96.903 345.438 96.903H364.709C362.357 96.903 360.45 94.9962 360.45 92.6441V62.8321C360.45 60.48 362.357 58.5732 364.709 58.5732H365.995V55.3791C365.995 54.497 366.71 53.782 367.592 53.782H373.022C373.904 53.782 374.62 54.497 374.62 55.3791V58.5732H375.905C378.257 58.5732 380.164 60.48 380.164 62.8321V92.6441C380.164 94.9962 378.257 96.903 375.905 96.903H389.202C386.85 96.903 384.943 94.9962 384.943 92.6441V62.8321C384.943 60.48 386.85 58.5732 389.202 58.5732H390.488V55.3791C390.488 54.497 391.203 53.782 392.085 53.782H397.516C398.398 53.782 399.113 54.497 399.113 55.3791V58.5732H400.399C402.751 58.5732 404.658 60.48 404.658 62.8321V92.6441C404.658 94.9962 402.751 96.903 400.399 96.903H425.644C423.292 96.903 421.385 94.9962 421.385 92.6441V62.8321C421.385 60.48 423.292 58.5732 425.644 58.5732H426.929V55.3791C426.929 54.497 427.644 53.782 428.526 53.782H433.957C434.839 53.782 435.554 54.497 435.554 55.3791V58.5732H436.84C439.192 58.5732 441.099 60.48 441.099 62.8321V92.6441C441.099 94.9962 439.192 96.903 436.84 96.903H441.099V109.68H-8.74341V96.903H20.2305V90.2485L15.4513 66.0262H41.1395L37.5551 90.2485V96.903H52.4901V90.2485L47.7109 66.0262H73.3991L69.8147 90.2485V96.903H81.7627V90.2485L76.9835 66.0262H102.672L99.0873 90.2485V96.903H132.653V90.2485L127.763 66.0262H154.048L150.38 90.2485V96.903H164.912V90.2485L160.022 66.0262H186.308L182.64 90.2485V96.903H194.185V90.2485L189.295 66.0262H215.58L211.913 90.2485V96.903H244.034C241.682 96.903 239.775 94.9962 239.775 92.6441V62.8321C239.775 60.48 241.682 58.5732 244.034 58.5732H245.152V55.3791C245.152 54.497 245.867 53.782 246.749 53.782H251.918C252.8 53.782 253.515 54.497 253.515 55.3791V58.5732H254.633C256.985 58.5732 258.892 60.48 258.892 62.8321V92.6441C258.892 94.9962 256.985 96.903 254.633 96.903H274.501C272.149 96.903 270.242 94.9962 270.242 92.6441V62.8321ZM57.568 173.563H45.62V167.973L49.2044 143.75H23.5162L28.2954 167.973V173.563H13.3604V167.973L16.9448 143.75H-8.74341L-3.96421 167.973V173.563H-8.74341V186.339H441.099V173.563H301.1C302.864 173.563 304.294 172.132 304.294 170.368V142.686C304.294 140.922 302.864 139.492 301.1 139.492H284.787C283.023 139.492 281.593 140.922 281.593 142.686V170.368C281.593 172.132 283.023 173.563 284.787 173.563H271.828C273.592 173.563 275.022 172.132 275.022 170.368V142.686C275.022 140.922 273.592 139.492 271.828 139.492H255.515C253.751 139.492 252.32 140.922 252.32 142.686V170.368C252.32 172.132 253.751 173.563 255.515 173.563H232.529C234.881 173.563 236.788 171.656 236.788 169.304V130.974C236.788 128.622 234.881 126.715 232.529 126.715H231.411V123.521C231.411 122.639 230.696 121.924 229.814 121.924H224.645C223.763 121.924 223.048 122.639 223.048 123.521V126.715H221.93C219.578 126.715 217.671 128.622 217.671 130.974V169.304C217.671 171.656 219.578 173.563 221.93 173.563H208.036C210.388 173.563 212.295 171.656 212.295 169.304V130.974C212.295 128.622 210.388 126.715 208.036 126.715H206.918V123.521C206.918 122.639 206.203 121.924 205.321 121.924H200.152C199.269 121.924 198.554 122.639 198.554 123.521V126.715H197.437C195.085 126.715 193.178 128.622 193.178 130.974V169.304C193.178 171.656 195.085 173.563 197.437 173.563H182.348C184.7 173.563 186.606 171.656 186.606 169.304V130.974C186.606 128.622 184.7 126.715 182.348 126.715H181.23V123.521C181.23 122.639 180.515 121.924 179.633 121.924H174.463C173.581 121.924 172.866 122.639 172.866 123.521V126.715H171.749C169.396 126.715 167.49 128.622 167.49 130.974V169.304C167.49 171.656 169.396 173.563 171.749 173.563H146.504C148.856 173.563 150.762 171.656 150.762 169.304V130.974C150.762 128.622 148.856 126.715 146.504 126.715H145.386V123.521C145.386 122.639 144.671 121.924 143.789 121.924H138.619C137.737 121.924 137.022 122.639 137.022 123.521V126.715H135.904C133.552 126.715 131.646 128.622 131.646 130.974V169.304C131.646 171.656 133.552 173.563 135.904 173.563H120.815C123.167 173.563 125.074 171.656 125.074 169.304V130.974C125.074 128.622 123.167 126.715 120.815 126.715H119.698V123.521C119.698 122.639 118.983 121.924 118.101 121.924H112.931C112.049 121.924 111.334 122.639 111.334 123.521V126.715H110.216C107.864 126.715 105.957 128.622 105.957 130.974V169.304C105.957 171.656 107.864 173.563 110.216 173.563H74.8926V167.973L78.477 143.75H52.7888L57.568 167.973V173.563ZM-8.74341 250.754H441.099V263.531H-8.74341V250.754ZM239.178 280.034C239.178 277.682 241.084 275.775 243.437 275.775H244.554V272.581C244.554 271.699 245.269 270.984 246.151 270.984H251.321C252.203 270.984 252.918 271.699 252.918 272.581V275.775H254.036C256.388 275.775 258.294 277.682 258.294 280.034V318.364C258.294 320.716 256.388 322.623 254.036 322.623H243.437C241.084 322.623 239.178 320.716 239.178 318.364V280.034ZM275.696 275.775C273.344 275.775 271.437 277.682 271.437 280.034V318.364C271.437 320.716 273.344 322.623 275.696 322.623H286.295C288.647 322.623 290.554 320.716 290.554 318.364V280.034C290.554 277.682 288.647 275.775 286.295 275.775H285.177V272.581C285.177 271.699 284.462 270.984 283.58 270.984H278.411C277.529 270.984 276.814 271.699 276.814 272.581V275.775H275.696ZM301.905 280.034C301.905 277.682 303.811 275.775 306.164 275.775H307.281V272.581C307.281 271.699 307.996 270.984 308.878 270.984H314.048C314.93 270.984 315.645 271.699 315.645 272.581V275.775H316.763C319.115 275.775 321.022 277.682 321.022 280.034V318.364C321.022 320.716 319.115 322.623 316.763 322.623H306.164C303.811 322.623 301.905 320.716 301.905 318.364V280.034ZM376.19 138.959C374.425 138.959 372.995 140.389 372.995 142.153V169.836C372.995 171.6 374.425 173.03 376.19 173.03H392.502C394.267 173.03 395.697 171.6 395.697 169.836V142.153C395.697 140.389 394.267 138.959 392.502 138.959H376.19ZM413.619 142.153C413.619 140.389 415.049 138.959 416.813 138.959H433.126C434.89 138.959 436.32 140.389 436.32 142.153V169.836C436.32 171.6 434.89 173.03 433.126 173.03H416.813C415.049 173.03 413.619 171.6 413.619 169.836V142.153ZM336.164 138.959C334.4 138.959 332.969 140.389 332.969 142.153V169.836C332.969 171.6 334.4 173.03 336.164 173.03H352.477C354.241 173.03 355.671 171.6 355.671 169.836V142.153C355.671 140.389 354.241 138.959 352.477 138.959H336.164ZM235.593 202.842C235.593 199.608 238.215 196.986 241.449 196.986H293.659C296.893 196.986 299.515 199.608 299.515 202.842V243.834C299.515 247.068 296.893 249.69 293.659 249.69H241.449C238.215 249.69 235.593 247.068 235.593 243.834V202.842ZM261.086 195.922C260.204 195.922 259.489 195.207 259.489 194.324V190.598C259.489 189.716 260.204 189.001 261.086 189.001H274.619C275.501 189.001 276.216 189.716 276.216 190.598V194.324C276.216 195.207 275.501 195.922 274.619 195.922H261.086ZM163.905 202.842C163.905 199.608 166.527 196.986 169.761 196.986H221.971C225.205 196.986 227.827 199.608 227.827 202.842V243.834C227.827 247.068 225.205 249.69 221.971 249.69H169.761C166.527 249.69 163.905 247.068 163.905 243.834V202.842ZM189.398 195.922C188.516 195.922 187.801 195.207 187.801 194.324V190.598C187.801 189.716 188.516 189.001 189.398 189.001H202.931C203.813 189.001 204.528 189.716 204.528 190.598V194.324C204.528 195.207 203.813 195.922 202.931 195.922H189.398ZM308.476 202.842C308.476 199.608 311.098 196.986 314.332 196.986H366.542C369.776 196.986 372.398 199.608 372.398 202.842V243.834C372.398 247.068 369.776 249.69 366.542 249.69H314.332C311.098 249.69 308.476 247.068 308.476 243.834V202.842ZM333.969 195.922C333.087 195.922 332.372 195.207 332.372 194.324V190.598C332.372 189.716 333.087 189.001 333.969 189.001H347.502C348.384 189.001 349.099 189.716 349.099 190.598V194.324C349.099 195.207 348.384 195.922 347.502 195.922H333.969ZM376.58 202.842C376.58 199.608 379.202 196.986 382.436 196.986H435.243C438.477 196.986 441.099 199.608 441.099 202.842V243.834C441.099 247.068 438.477 249.69 435.243 249.69H382.436C379.202 249.69 376.58 247.068 376.58 243.834V202.842ZM402.296 195.922C401.414 195.922 400.699 195.207 400.699 194.324V190.598C400.699 189.716 401.414 189.001 402.296 189.001H415.986C416.868 189.001 417.583 189.716 417.583 190.598V194.324C417.583 195.207 416.868 195.922 415.986 195.922H402.296ZM-2.17199 202.842C-2.17199 199.608 0.449805 196.986 3.68395 196.986H56.4913C59.7254 196.986 62.3472 199.608 62.3472 202.842V243.834C62.3472 247.068 59.7254 249.69 56.4913 249.69H3.68395C0.449803 249.69 -2.17199 247.068 -2.17199 243.834V202.842ZM23.5444 195.922C22.6623 195.922 21.9473 195.207 21.9473 194.324V190.598C21.9473 189.716 22.6623 189.001 23.5444 189.001H37.2338C38.1158 189.001 38.8308 189.716 38.8308 190.598V194.324C38.8308 195.207 38.1158 195.922 37.2338 195.922H23.5444Z" fill="#DDDCD7" fill-opacity="0.74"/>
<path d="M83.7913 163.992C84.6431 166.761 83.4364 174.906 82.7266 178.632C83.259 183.867 85.0157 194.976 87.784 197.531C91.2443 200.725 103.755 203.653 107.481 203.387C111.208 203.121 113.337 195.135 113.603 193.272C113.816 191.782 112.095 188.392 111.208 186.884C110.409 185.908 108.919 182.998 109.345 179.165C110.942 179.52 114.349 180.016 115.2 179.165C116.265 178.1 124.974 168.708 125.848 165.59C127.711 158.935 127.038 156.758 126.873 155.438C126.606 153.308 129.574 147.489 129.574 145.094C129.574 142.698 134.099 126.994 121.056 119.541C108.014 112.088 92.8414 114.749 86.9855 117.411C81.1295 120.073 76.0739 131.226 75.806 135.245C75.5398 139.238 72.878 151.216 82.1943 157.604C82.4604 159.024 83.1525 162.289 83.7913 163.992Z" fill="#FFD5AF"/>
<path d="M109.345 179.165C108.919 182.998 110.41 185.909 111.208 186.885C101.413 185.607 96.8344 173.753 95.7697 167.986C97.8991 171.357 103.595 178.314 109.345 179.165Z" fill="black" fill-opacity="0.07"/>
<path fill-rule="evenodd" clip-rule="evenodd" d="M101.093 136.007L100.599 140.207H114.5H118.433C118.699 138.787 119.231 135.788 119.231 135.149C119.231 134.942 119.411 135.201 119.764 135.712C120.774 137.17 123.205 140.68 126.951 141.271H131.677C134 131.5 132.145 118.646 118.303 113.323C110.85 110.456 97.7241 110.342 95.8076 111.193C88.7095 112.613 75.8544 119.228 73 133.5C72 138.5 70.5 143.118 72.5 151.5C74.5 159.882 72.8241 152.1 73 152.5C74.7546 156.485 71.7972 160.777 71.9499 163.6C72.2728 169.571 71.0646 182.247 68 187C72.5196 187 83.8 177.9 89 173.5C94 169 91.6668 154 93.0001 147.5C93.0001 151.5 96.5001 154 96.5001 154C96.5001 154 94.4389 146.303 96.5001 143.118C98.7361 141.47 100.67 139.132 101.093 136.007Z" fill="#FFC55C"/>
<path d="M68 187.27C72.5196 187.27 83.8 178.17 89 173.77C94 169.27 91.6668 154.27 93.0001 147.77C90.0001 156.014 85 160.5 85 160.5C79.5 150.5 83 136 83 136C83 136 77 144.274 77 147.77C71.9499 137.433 77.3333 126.693 78.5 122C69.5 134 71 147.77 73 152.77C74.6171 156.813 71.7972 161.048 71.9499 163.87C72.2728 169.842 71.0646 182.517 68 187.27Z" fill="black" fill-opacity="0.05"/>
<path d="M60.8991 191.939L82.992 178.896C83.7905 182.179 86.1862 188.479 89.1141 191.939C90.949 194.691 96.3332 197.186 101.358 197.769C106.539 198.371 111.338 196.942 111.473 191.673V187.148L129.307 191.939C132.413 194.512 138.943 203.119 140.221 216.96C141.498 230.801 141.285 240.472 141.019 243.578C147.851 244.11 162.42 246.399 163.91 247.038C164.952 247.484 167.573 248.002 170.565 247.867C172.927 247.761 175.521 247.248 177.752 245.973C179.615 244.909 180.946 245.973 181.744 245.973C182.383 245.973 184.672 247.393 185.737 248.103C189.996 247.837 198.62 247.038 199.046 245.973C199.578 244.643 203.039 247.837 200.111 249.168C197.183 250.498 183.075 256.621 176.155 256.887C175.091 256.928 173.821 256.949 172.428 256.955C172.215 257.435 171.807 262.078 171.363 262.743L148.206 258.71C142.712 260.17 136.452 261.099 130.904 261.637V281.641H64.3595V251.383C63.0083 249.314 59.8063 242.886 57.8077 233.729C55.5784 228.534 53.6383 223.455 52.3814 219.089C48.3355 205.035 56.3741 195.133 60.8991 191.939Z" fill="#F9F9F9"/>
<path opacity="0.5" d="M52.3814 219.092C48.3355 205.038 56.3741 195.136 60.8991 191.942C64.7276 193.006 73.1219 199.501 76.0714 216.962C78.9993 226.367 81.6611 237.991 82.992 245.976C83.1897 247.162 97.6215 249.433 106.15 251.385C106.809 251.536 107.433 251.685 108.013 251.832C108.866 251.843 109.859 251.855 110.941 251.867C115.683 251.917 122.145 251.965 126.113 251.945C128.399 251.934 130.032 251.9 130.372 251.832V243.58C130.372 241.983 134.098 226.545 132.235 222.818C133.726 221.339 130.904 201.617 129.307 191.942C132.413 194.515 138.943 203.121 140.221 216.962C141.498 230.804 141.285 240.475 141.019 243.58C147.851 244.113 162.42 246.402 163.91 247.041C164.952 247.487 167.573 248.005 170.565 247.87C172.927 247.764 175.521 247.251 177.752 245.976C179.615 244.911 180.946 245.976 181.744 245.976C182.383 245.976 184.672 247.396 185.737 248.105C189.996 247.839 198.62 247.041 199.046 245.976C199.578 244.645 203.039 247.839 200.111 249.17C197.183 250.501 183.075 256.623 176.155 256.889C175.091 256.93 173.821 256.951 172.428 256.957C172.215 257.438 171.807 262.081 171.363 262.745L148.206 258.713C142.712 260.172 136.452 261.101 130.904 261.639C130.726 261.657 130.549 261.674 130.372 261.69C130.372 263.401 128.775 267.188 127.976 268.867C125.634 269.932 96.9221 267.642 80.064 265.407L72.611 263.544C69.1247 257.366 62.7545 245.261 57.8077 233.732C55.5784 228.536 53.6383 223.458 52.3814 219.092Z" fill="#43B02A" fill-opacity="0.65"/>
<path d="M130.372 261.687C128.888 261.826 127.458 261.936 126.113 262.021C125.871 262.036 125.63 262.051 125.393 262.065C126.09 264.709 127.135 267.211 127.977 268.865C128.775 267.185 130.372 263.398 130.372 261.687Z" fill="#B1D2A9"/>
<path d="M172.429 256.955C172.216 257.435 171.808 262.078 171.364 262.742C170.886 262.053 170.054 257.958 169.883 256.951L169.873 256.886L172.429 256.955Z" fill="#B1D2A9"/>
<path d="M159.385 249.17C164.07 248.105 163.289 249.614 162.313 250.501C161.256 252.989 158.402 254.992 154.594 256.591C154.132 256.785 153.655 256.973 153.166 257.155C151.622 257.731 149.953 258.249 148.206 258.713C142.712 260.172 136.452 261.101 130.904 261.639C130.726 261.657 130.548 261.673 130.372 261.69C128.887 261.828 127.458 261.939 126.113 262.024C125.87 262.039 125.63 262.054 125.392 262.067C124.4 258.303 124.112 254.249 126.113 251.945C128.398 251.933 130.032 251.9 130.372 251.832C131.703 251.566 135.163 248.105 137.026 248.105C138.889 248.105 153.529 250.501 159.385 249.17Z" fill="#FFD5AF"/>
<path d="M181.744 245.976C180.946 245.976 179.615 244.911 177.752 245.976C175.521 247.251 172.927 247.763 170.565 247.87C170.036 249.913 169.378 253.864 169.872 256.889L172.428 256.957C173.821 256.951 175.091 256.93 176.155 256.889C183.075 256.623 197.183 250.501 200.111 249.17C203.039 247.839 199.578 244.645 199.046 245.976C198.62 247.041 189.996 247.839 185.737 248.105C184.672 247.396 182.383 245.976 181.744 245.976Z" fill="#FFD5AF"/>
<rect x="86.9452" y="220.936" width="15.9707" height="9.58244" fill="#43B02A"/>
<rect x="93.866" y="217.747" width="2.12943" height="4.79122" fill="#585858"/>
<rect opacity="0.5" x="88.5416" y="223.6" width="4.25886" height="4.79122" fill="white"/>
<rect x="79.7135" y="13.3218" width="171.952" height="54.3006" rx="9" fill="#D0D0D0"/>
<rect x="83.4397" y="10.6594" width="171.952" height="54.3006" rx="8" fill="white"/>
<path d="M122.753 27.1871C123.023 27.1871 123.25 27.1547 123.434 27.0899C123.617 27.0252 123.763 26.9388 123.871 26.8308C123.983 26.7228 124.062 26.5968 124.109 26.4528C124.159 26.3088 124.184 26.1558 124.184 25.9938C124.184 25.8246 124.157 25.6734 124.103 25.5402C124.049 25.4035 123.965 25.2883 123.85 25.1947C123.734 25.0975 123.585 25.0237 123.401 24.9733C123.221 24.9229 123.004 24.8977 122.748 24.8977H121.285V27.1871H122.753ZM121.285 21.6363V23.8933H122.44C122.937 23.8933 123.311 23.8033 123.563 23.6234C123.819 23.4434 123.947 23.1572 123.947 22.7648C123.947 22.358 123.832 22.0683 123.601 21.8955C123.371 21.7227 123.011 21.6363 122.521 21.6363H121.285ZM122.521 20.5132C123.032 20.5132 123.47 20.5617 123.833 20.6589C124.197 20.7561 124.494 20.8947 124.724 21.0747C124.958 21.2547 125.129 21.4725 125.237 21.7281C125.345 21.9837 125.399 22.2716 125.399 22.592C125.399 22.7756 125.372 22.952 125.318 23.1212C125.264 23.2868 125.18 23.4434 125.064 23.591C124.953 23.735 124.809 23.8663 124.632 23.9851C124.46 24.1039 124.253 24.2047 124.011 24.2875C125.084 24.5287 125.621 25.1083 125.621 26.0262C125.621 26.3574 125.558 26.6634 125.432 26.9442C125.306 27.2249 125.122 27.4679 124.881 27.6731C124.64 27.8747 124.343 28.0331 123.99 28.1483C123.637 28.2635 123.234 28.3211 122.78 28.3211H119.832V20.5132H122.521Z" fill="#F96D15"/>
<path d="M131.16 25.3729L130.21 22.7756C130.163 22.6604 130.114 22.5236 130.064 22.3652C130.013 22.2068 129.963 22.0359 129.913 21.8523C129.866 22.0359 129.817 22.2086 129.767 22.3706C129.716 22.529 129.668 22.6676 129.621 22.7864L128.676 25.3729H131.16ZM133.725 28.3211H132.602C132.476 28.3211 132.373 28.2905 132.294 28.2293C132.215 28.1645 132.155 28.0853 132.116 27.9917L131.533 26.3988H128.298L127.715 27.9917C127.686 28.0745 127.63 28.1501 127.548 28.2185C127.465 28.2869 127.36 28.3211 127.234 28.3211H126.106L129.173 20.5132H130.658L133.725 28.3211Z" fill="#F96D15"/>
<path d="M144.712 20.5132V28.3211H134.734V20.5132H136.191V27.2033H138.988V20.5132H140.446V27.2033H143.254V20.5132H144.712Z" fill="#F96D15"/>
<path d="M150.776 25.3729L149.825 22.7756C149.778 22.6604 149.73 22.5236 149.679 22.3652C149.629 22.2068 149.579 22.0359 149.528 21.8523C149.481 22.0359 149.433 22.2086 149.382 22.3706C149.332 22.529 149.283 22.6676 149.237 22.7864L148.292 25.3729H150.776ZM153.34 28.3211H152.217C152.091 28.3211 151.989 28.2905 151.909 28.2293C151.83 28.1645 151.771 28.0853 151.731 27.9917L151.148 26.3988H147.914L147.331 27.9917C147.302 28.0745 147.246 28.1501 147.163 28.2185C147.08 28.2869 146.976 28.3211 146.85 28.3211H145.721L148.788 20.5132H150.273L153.34 28.3211Z" fill="#F96D15"/>
<path d="M163.384 20.5132L160.231 27.2357C160.119 27.4697 160.001 27.6623 159.875 27.8135C159.749 27.9647 159.612 28.0835 159.464 28.1699C159.32 28.2563 159.164 28.3157 158.995 28.3481C158.829 28.3841 158.651 28.4021 158.46 28.4021C158.201 28.4021 158.012 28.3787 157.893 28.3319C157.774 28.2851 157.715 28.2167 157.715 28.1267V27.2195H158.136C158.215 27.2195 158.296 27.2123 158.379 27.1979C158.462 27.1835 158.543 27.1547 158.622 27.1115C158.705 27.0683 158.784 27.0072 158.86 26.928C158.935 26.8488 159.005 26.7444 159.07 26.6148L159.378 25.9884L156.246 20.5132H157.607C157.733 20.5132 157.834 20.5438 157.909 20.6049C157.985 20.6661 158.048 20.7435 158.098 20.8371L159.616 23.699C159.698 23.8573 159.772 24.0139 159.837 24.1687C159.905 24.3235 159.965 24.4819 160.015 24.6439C160.109 24.3199 160.229 24.0049 160.377 23.699L161.7 20.8371C161.739 20.7579 161.799 20.6841 161.878 20.6157C161.957 20.5473 162.058 20.5132 162.18 20.5132H163.384Z" fill="#F96D15"/>
<path d="M169.957 28.3211H168.494V21.6309H166.361C166.31 22.61 166.238 23.4578 166.145 24.1741C166.055 24.8869 165.945 25.4952 165.815 25.9992C165.689 26.4996 165.544 26.9064 165.378 27.2195C165.216 27.5327 165.038 27.7775 164.843 27.9539C164.649 28.1267 164.44 28.2455 164.217 28.3103C163.994 28.3715 163.76 28.4021 163.515 28.4021C163.256 28.4021 163.067 28.3787 162.948 28.3319C162.829 28.2851 162.77 28.2167 162.77 28.1267V27.2195H163.186C163.279 27.2195 163.373 27.2087 163.467 27.1871C163.564 27.1655 163.659 27.1205 163.753 27.0522C163.85 26.9802 163.944 26.8776 164.034 26.7444C164.127 26.6112 164.215 26.433 164.298 26.2098C164.385 25.983 164.464 25.7058 164.536 25.3783C164.611 25.0507 164.678 24.6565 164.736 24.1957C164.797 23.735 164.849 23.2022 164.892 22.5974C164.939 21.9891 164.973 21.2943 164.995 20.5132H169.957V28.3211Z" fill="#F96D15"/>
<path d="M178.447 27.2033C178.792 27.2033 179.102 27.1385 179.375 27.009C179.649 26.8794 179.879 26.694 180.067 26.4528C180.257 26.2116 180.403 25.92 180.504 25.578C180.605 25.2325 180.655 24.8455 180.655 24.4171C180.655 23.9887 180.605 23.6036 180.504 23.2616C180.403 22.916 180.257 22.6226 180.067 22.3814C179.879 22.1367 179.649 21.9495 179.375 21.8199C179.102 21.6903 178.792 21.6255 178.447 21.6255C178.101 21.6255 177.792 21.6903 177.518 21.8199C177.244 21.9495 177.012 22.1367 176.821 22.3814C176.634 22.6226 176.49 22.916 176.389 23.2616C176.289 23.6036 176.238 23.9887 176.238 24.4171C176.238 24.8455 176.289 25.2325 176.389 25.578C176.49 25.92 176.634 26.2116 176.821 26.4528C177.012 26.694 177.244 26.8794 177.518 27.009C177.792 27.1385 178.101 27.2033 178.447 27.2033ZM174.78 23.8717C174.834 23.3678 174.957 22.9052 175.148 22.484C175.342 22.0629 175.598 21.6993 175.914 21.3933C176.231 21.0873 176.602 20.8497 177.027 20.6805C177.455 20.5114 177.928 20.4268 178.447 20.4268C179.012 20.4268 179.521 20.5276 179.975 20.7291C180.432 20.9271 180.821 21.2043 181.141 21.5607C181.462 21.9171 181.708 22.34 181.881 22.8296C182.054 23.3156 182.14 23.8447 182.14 24.4171C182.14 24.9895 182.054 25.5204 181.881 26.01C181.708 26.496 181.462 26.9172 181.141 27.2735C180.821 27.6263 180.432 27.9035 179.975 28.1051C179.521 28.3031 179.012 28.4021 178.447 28.4021C177.932 28.4021 177.46 28.3193 177.032 28.1537C176.607 27.9845 176.236 27.7487 175.92 27.4463C175.607 27.1439 175.353 26.784 175.158 26.3664C174.964 25.9488 174.84 25.4898 174.786 24.9895H173.371V28.3211H171.913V20.5132H173.371V23.8717H174.78Z" fill="#F96D15"/>
<path d="M186.367 27.1871C186.637 27.1871 186.862 27.1583 187.042 27.1007C187.226 27.0396 187.373 26.9568 187.485 26.8524C187.596 26.748 187.676 26.6256 187.722 26.4852C187.769 26.3448 187.793 26.1936 187.793 26.0316C187.793 25.8552 187.769 25.695 187.722 25.551C187.676 25.4071 187.596 25.2865 187.485 25.1893C187.373 25.0885 187.227 25.0111 187.047 24.9571C186.867 24.9031 186.642 24.8761 186.372 24.8761H185.098V27.1871H186.367ZM186.372 23.7422C186.88 23.7422 187.314 23.798 187.674 23.9095C188.037 24.0211 188.333 24.1741 188.559 24.3685C188.79 24.5593 188.959 24.7861 189.067 25.0489C189.175 25.3081 189.229 25.587 189.229 25.8858C189.229 26.253 189.164 26.586 189.034 26.8848C188.908 27.1835 188.723 27.4409 188.478 27.6569C188.234 27.8693 187.933 28.0331 187.577 28.1483C187.224 28.2635 186.821 28.3211 186.367 28.3211H183.646V20.5132H188.943V21.6363H185.098V23.7422H186.372Z" fill="#F96D15"/>
<path d="M196.96 28.3211H195.497V21.6309H193.364C193.313 22.61 193.241 23.4578 193.148 24.1741C193.058 24.8869 192.948 25.4952 192.818 25.9992C192.692 26.4996 192.547 26.9064 192.381 27.2195C192.219 27.5327 192.041 27.7775 191.846 27.9539C191.652 28.1267 191.443 28.2455 191.22 28.3103C190.997 28.3715 190.763 28.4021 190.518 28.4021C190.259 28.4021 190.07 28.3787 189.951 28.3319C189.832 28.2851 189.773 28.2167 189.773 28.1267V27.2195H190.189C190.282 27.2195 190.376 27.2087 190.47 27.1871C190.567 27.1655 190.662 27.1205 190.756 27.0522C190.853 26.9802 190.946 26.8776 191.036 26.7444C191.13 26.6112 191.218 26.433 191.301 26.2098C191.387 25.983 191.467 25.7058 191.539 25.3783C191.614 25.0507 191.681 24.6565 191.738 24.1957C191.8 23.735 191.852 23.2022 191.895 22.5974C191.942 21.9891 191.976 21.2943 191.998 20.5132H196.96V28.3211Z" fill="#F96D15"/>
<path d="M200.374 21.6687V23.8339H203.106V24.9517H200.374V27.1601H203.841V28.3211H198.916V20.5132H203.841V21.6687H200.374Z" fill="#F96D15"/>
<path d="M211.926 20.5132V28.3211H210.468V24.9085H206.802V28.3211H205.344V20.5132H206.802V23.8717H210.468V20.5132H211.926Z" fill="#F96D15"/>
<path d="M217.99 25.3729L217.04 22.7756C216.993 22.6604 216.944 22.5236 216.894 22.3652C216.843 22.2068 216.793 22.0359 216.743 21.8523C216.696 22.0359 216.647 22.2086 216.597 22.3706C216.546 22.529 216.498 22.6676 216.451 22.7864L215.506 25.3729H217.99ZM220.555 28.3211H219.432C219.306 28.3211 219.203 28.2905 219.124 28.2293C219.045 28.1645 218.985 28.0853 218.946 27.9917L218.362 26.3988H215.128L214.545 27.9917C214.516 28.0745 214.46 28.1501 214.378 28.2185C214.295 28.2869 214.19 28.3211 214.064 28.3211H212.936L216.003 20.5132H217.488L220.555 28.3211Z" fill="#F96D15"/>
<path d="M128.349 48.07L126.343 42.3972C126.223 42.0991 126.096 41.7498 125.959 41.3495C125.832 40.9406 125.704 40.502 125.576 40.0335C125.457 40.5105 125.329 40.9534 125.193 41.3623C125.065 41.7711 124.942 42.1246 124.822 42.4227L122.829 48.07H128.349ZM134.775 55.1099H131.811C131.479 55.1099 131.206 55.0332 130.993 54.8799C130.789 54.7181 130.636 54.5136 130.533 54.2666L129.281 50.7275H121.884L120.632 54.2666C120.555 54.4796 120.406 54.6755 120.184 54.8544C119.971 55.0247 119.703 55.1099 119.379 55.1099H116.39L123.621 36.571H127.544L134.775 55.1099Z" fill="#43B02A"/>
<path d="M152.222 55.1099H148.363V39.4713H140.812V55.1099H136.954V36.571H152.222V55.1099Z" fill="#43B02A"/>
<path d="M169.726 39.663H164.309V55.1099H160.463V39.663H155.046V36.571H169.726V39.663Z" fill="#43B02A"/>
<path d="M176.396 39.5735V44.3392H182.58V47.2395H176.396V52.1074H184.343V55.1099H172.537V36.571H184.343V39.5735H176.396Z" fill="#43B02A"/>
<path d="M203.846 55.1099H200.345C199.996 55.1099 199.702 55.0205 199.463 54.8416C199.225 54.6542 199.003 54.3816 198.799 54.0239L195.26 47.9933C195.158 47.8145 195.047 47.6654 194.928 47.5461C194.817 47.4269 194.693 47.3332 194.557 47.2651C194.429 47.1884 194.28 47.1373 194.11 47.1117C193.948 47.0862 193.765 47.0734 193.56 47.0734H191.555V55.1099H187.722V36.571H191.555V44.2242H193.228C193.56 44.2242 193.85 44.1646 194.097 44.0454C194.344 43.9261 194.574 43.7046 194.787 43.381L198.531 37.5804C198.709 37.2823 198.927 37.0395 199.182 36.8521C199.438 36.6647 199.744 36.571 200.102 36.571H203.386L198.582 43.9431C198.369 44.2753 198.117 44.5522 197.828 44.7736C197.538 44.9866 197.219 45.1569 196.87 45.2847C197.415 45.4295 197.875 45.668 198.249 46.0002C198.624 46.3238 198.978 46.7795 199.31 47.3673L203.846 55.1099Z" fill="#43B02A"/>
<path d="M216.023 48.07L214.017 42.3972C213.898 42.0991 213.77 41.7498 213.634 41.3495C213.506 40.9406 213.378 40.502 213.251 40.0335C213.131 40.5105 213.004 40.9534 212.867 41.3623C212.739 41.7711 212.616 42.1246 212.497 42.4227L210.504 48.07H216.023ZM222.45 55.1099H219.486C219.153 55.1099 218.881 55.0332 218.668 54.8799C218.463 54.7181 218.31 54.5136 218.208 54.2666L216.956 50.7275H209.558L208.306 54.2666C208.229 54.4796 208.08 54.6755 207.859 54.8544C207.646 55.0247 207.378 55.1099 207.054 55.1099H204.064L211.296 36.571H215.218L222.45 55.1099Z" fill="#43B02A"/>
<path d="M220.508 240.001L235.206 194.59H176.81C170.694 194.59 165.285 198.561 163.453 204.396L149.23 249.689H207.188C213.259 249.689 218.639 245.777 220.508 240.001Z" fill="#6978DF"/>
<path d="M160.284 201.061L147.521 241.285C146.598 244.193 147.244 247.372 149.23 249.689L163.233 205.097C165.196 198.844 170.991 194.59 177.544 194.59H235.206L234.445 193.774C232.553 191.748 229.906 190.598 227.134 190.598H174.581C168.045 190.598 162.261 194.831 160.284 201.061Z" fill="#4A5497"/>
<rect width="45.2505" height="1.59707" transform="matrix(-1 0 0 1 221.631 199.378)" fill="#4A5497"/>
<rect width="45.2505" height="1.59707" transform="matrix(-1 0 0 1 220.034 203.106)" fill="#4A5497"/>
<rect width="45.2505" height="1.59707" transform="matrix(-1 0 0 1 218.97 206.835)" fill="#4A5497"/>
<rect width="45.2505" height="1.59707" transform="matrix(-1 0 0 1 216.84 211.094)" fill="#4A5497"/>
<path d="M177.445 249.95L182.769 229.454L200.869 249.95H177.445Z" fill="#4A5497"/>
<path d="M209.652 263.259L199.803 229.454H182.768L191.818 263.259H166.797L136.719 281.625H166.797H230.414V271.259C230.414 266.84 226.832 263.259 222.414 263.259H209.652Z" fill="#6978DF"/>
<rect width="205.49" height="22.8914" transform="matrix(1 0 0 -1 38.5007 335.398)" fill="#5D6ABE"/>
<rect x="32.1119" y="281.627" width="217.735" height="30.8768" rx="10" fill="#6978DF"/>
<rect width="217.735" height="17.5678" transform="matrix(1 0 0 -1 32.1119 305.587)" fill="#929DEB"/>
<path d="M140.879 81.511C140.879 77.0927 144.461 73.511 148.879 73.511H309.182C313.6 73.511 317.182 77.0927 317.182 81.511V133.569C317.182 137.987 313.6 141.569 309.182 141.569H167.778H154.815H148.879C144.461 141.569 140.879 137.987 140.879 133.569V81.511Z" fill="#43B02A"/>
<path d="M154.815 141.569L136.99 165.227L167.778 141.569H154.815Z" fill="#43B02A"/>
<path d="M156.293 89.9469C156.656 89.6358 157.086 89.3938 157.583 89.2209C158.084 89.0481 158.64 88.9617 159.249 88.9617C159.754 88.9617 160.21 89.0222 160.617 89.1432C161.027 89.2641 161.375 89.4348 161.66 89.6552C161.945 89.8713 162.164 90.1305 162.315 90.433C162.47 90.7312 162.548 91.0596 162.548 91.4182C162.548 91.859 162.447 92.2587 162.243 92.6173C162.045 92.9717 161.742 93.259 161.336 93.4794C161.552 93.5831 161.749 93.7063 161.926 93.8489C162.107 93.9871 162.261 94.1427 162.386 94.3156C162.516 94.4841 162.615 94.6677 162.684 94.8665C162.758 95.0653 162.794 95.277 162.794 95.5017C162.794 95.9252 162.714 96.3206 162.555 96.6879C162.399 97.0551 162.17 97.3749 161.868 97.6471C161.569 97.9194 161.202 98.1354 160.766 98.2953C160.329 98.4509 159.83 98.5287 159.268 98.5287C158.94 98.5287 158.618 98.4984 158.303 98.4379C157.991 98.3817 157.693 98.2996 157.408 98.1916C157.123 98.0836 156.855 97.9539 156.604 97.8027C156.354 97.6515 156.131 97.4829 155.937 97.2971L156.449 96.461C156.496 96.4005 156.553 96.3508 156.617 96.3119C156.686 96.2687 156.762 96.2471 156.844 96.2471C156.957 96.2471 157.08 96.2925 157.214 96.3832C157.348 96.4696 157.51 96.5669 157.7 96.6749C157.89 96.7829 158.115 96.8823 158.374 96.973C158.637 97.0595 158.953 97.1027 159.32 97.1027C159.904 97.1027 160.355 96.9774 160.675 96.7267C160.995 96.4761 161.155 96.0915 161.155 95.573C161.155 95.3613 161.111 95.1711 161.025 95.0026C160.938 94.8341 160.815 94.6915 160.655 94.5748C160.496 94.4581 160.301 94.3696 160.072 94.3091C159.847 94.2443 159.597 94.2118 159.32 94.2118H157.998L157.991 92.8118H159.197C159.737 92.8118 160.159 92.7059 160.461 92.4942C160.768 92.2781 160.921 91.967 160.921 91.5608C160.921 91.2022 160.776 90.917 160.487 90.7052C160.202 90.4892 159.787 90.3812 159.242 90.3812C158.927 90.3812 158.655 90.4157 158.426 90.4849C158.201 90.554 158.004 90.6296 157.836 90.7117C157.672 90.7895 157.531 90.863 157.415 90.9321C157.302 91.0012 157.201 91.0358 157.11 91.0358C157.024 91.0358 156.95 91.0142 156.89 90.971C156.829 90.9278 156.773 90.863 156.721 90.7765L156.293 89.9469Z" fill="white"/>
<path d="M170.038 91.7877V98.4379H168.437V95.4952H165.845V98.4379H164.244V91.7877H165.845V94.3091H168.437V91.7877H170.038Z" fill="white"/>
<path d="M177.86 91.7877V98.4379H176.259V94.5554C176.259 94.456 176.263 94.348 176.271 94.2313C176.284 94.1103 176.3 93.9893 176.317 93.8683C176.23 94.0671 176.135 94.2421 176.032 94.3933C176.023 94.402 175.98 94.4625 175.902 94.5748C175.824 94.6828 175.723 94.8233 175.597 94.9961C175.476 95.169 175.338 95.3656 175.183 95.586C175.027 95.802 174.869 96.0224 174.709 96.2471C174.333 96.7786 173.908 97.3792 173.433 98.049C173.372 98.1398 173.292 98.2283 173.193 98.3148C173.098 98.4012 172.987 98.4444 172.862 98.4444H171.883V91.7942H173.484V95.6767C173.484 95.7761 173.478 95.8863 173.465 96.0073C173.456 96.1239 173.443 96.2428 173.426 96.3638C173.521 96.152 173.616 95.977 173.711 95.8388C173.716 95.8301 173.757 95.7718 173.834 95.6637C173.912 95.5557 174.012 95.4153 174.133 95.2424C174.258 95.0696 174.398 94.8751 174.554 94.6591C174.709 94.4387 174.867 94.214 175.027 93.985C175.403 93.4535 175.831 92.8528 176.31 92.1831C176.371 92.088 176.451 91.9994 176.55 91.9173C176.65 91.8309 176.762 91.7877 176.887 91.7877H177.86Z" fill="white"/>
<path d="M189.404 98.4379H188.295C188.01 98.4379 187.794 98.3947 187.647 98.3083C187.5 98.2219 187.383 98.0814 187.297 97.887L186.312 96.0462C186.23 95.8863 186.119 95.7675 185.981 95.6897C185.847 95.6119 185.69 95.573 185.508 95.573H184.983V98.4379H183.434V95.573H182.902C182.725 95.573 182.567 95.6119 182.429 95.6897C182.291 95.7675 182.181 95.8863 182.099 96.0462L181.113 97.887C181.027 98.0814 180.91 98.2219 180.763 98.3083C180.617 98.3947 180.4 98.4379 180.115 98.4379H179.013L180.569 95.6962C180.677 95.5017 180.8 95.3418 180.938 95.2165C181.077 95.0869 181.254 94.9875 181.47 94.9183C181.31 94.8622 181.174 94.7822 181.062 94.6785C180.949 94.5705 180.841 94.4301 180.737 94.2572L179.182 91.7877H180.446C180.593 91.7877 180.727 91.8266 180.848 91.9044C180.973 91.9778 181.07 92.0794 181.139 92.209L182.267 94.1211C182.349 94.2594 182.444 94.3631 182.552 94.4322C182.665 94.497 182.812 94.5294 182.993 94.5294H183.434V91.7877H184.983V94.5294H185.391C185.573 94.5294 185.722 94.497 185.839 94.4322C185.96 94.3631 186.061 94.2594 186.143 94.1211L187.271 92.209C187.34 92.0794 187.435 91.9778 187.556 91.9044C187.682 91.8266 187.82 91.7877 187.971 91.7877H189.229L187.673 94.2572C187.569 94.4301 187.461 94.5705 187.349 94.6785C187.236 94.7822 187.1 94.8622 186.94 94.9183C187.157 94.9875 187.334 95.0869 187.472 95.2165C187.61 95.3418 187.733 95.5017 187.841 95.6962L189.404 98.4379Z" fill="white"/>
<path d="M194.529 92.209C194.607 92.0837 194.713 91.9821 194.847 91.9044C194.981 91.8266 195.123 91.7877 195.274 91.7877H196.532L194.983 94.2572C194.875 94.4301 194.765 94.5705 194.652 94.6785C194.54 94.7822 194.404 94.8643 194.244 94.9248C194.46 94.9896 194.637 95.0869 194.775 95.2165C194.914 95.3418 195.039 95.5017 195.151 95.6962L196.707 98.4379H195.599C195.318 98.4379 195.099 98.3904 194.944 98.2953C194.788 98.2002 194.657 98.0641 194.548 97.887L193.57 96.0462C193.483 95.8863 193.371 95.7675 193.233 95.6897C193.099 95.6119 192.941 95.573 192.76 95.573H192.157V98.4379H190.556V91.7877H192.157V94.5294H192.675C192.857 94.5294 193.002 94.497 193.11 94.4322C193.222 94.3631 193.317 94.2594 193.395 94.1211L194.529 92.209Z" fill="white"/>
<path d="M201.367 95.5989C200.904 95.6205 200.516 95.6616 200.2 95.7221C199.885 95.7783 199.632 95.8517 199.442 95.9425C199.252 96.0332 199.116 96.1391 199.033 96.2601C198.951 96.3811 198.91 96.5128 198.91 96.6554C198.91 96.9363 198.992 97.1373 199.157 97.2582C199.325 97.3792 199.543 97.4397 199.811 97.4397C200.14 97.4397 200.423 97.3814 200.66 97.2647C200.902 97.1437 201.138 96.9622 201.367 96.7203V95.5989ZM197.698 92.7146C198.463 92.0145 199.383 91.6645 200.459 91.6645C200.848 91.6645 201.196 91.7294 201.503 91.859C201.81 91.9843 202.069 92.1615 202.281 92.3905C202.492 92.6152 202.652 92.8853 202.76 93.2007C202.873 93.5161 202.929 93.8618 202.929 94.2378V98.4379H202.203C202.052 98.4379 201.935 98.4163 201.853 98.3731C201.771 98.3256 201.706 98.2327 201.659 98.0944L201.516 97.6147C201.347 97.766 201.183 97.8999 201.023 98.0166C200.863 98.129 200.697 98.224 200.524 98.3018C200.351 98.3796 200.166 98.4379 199.967 98.4768C199.772 98.52 199.556 98.5416 199.319 98.5416C199.038 98.5416 198.778 98.5049 198.541 98.4314C198.303 98.3536 198.098 98.2391 197.925 98.0879C197.752 97.9367 197.618 97.7487 197.523 97.524C197.428 97.2993 197.381 97.0379 197.381 96.7397C197.381 96.5712 197.409 96.4048 197.465 96.2406C197.521 96.0721 197.612 95.9122 197.737 95.761C197.867 95.6097 198.033 95.4671 198.236 95.3332C198.439 95.1992 198.688 95.0826 198.982 94.9832C199.28 94.8838 199.625 94.8038 200.019 94.7433C200.412 94.6785 200.861 94.6396 201.367 94.6267V94.2378C201.367 93.7927 201.272 93.4643 201.082 93.2526C200.892 93.0365 200.617 92.9285 200.258 92.9285C199.999 92.9285 199.783 92.9587 199.61 93.0192C199.442 93.0797 199.293 93.1488 199.163 93.2266C199.033 93.3001 198.915 93.3671 198.807 93.4276C198.703 93.4881 198.586 93.5183 198.457 93.5183C198.344 93.5183 198.249 93.4902 198.171 93.434C198.094 93.3735 198.031 93.3044 197.983 93.2266L197.698 92.7146Z" fill="white"/>
<path d="M207.719 92.5072C207.969 92.2652 208.28 92.0686 208.652 91.9173C209.024 91.7618 209.469 91.684 209.987 91.684C210.398 91.684 210.763 91.7337 211.083 91.8331C211.402 91.9281 211.67 92.0599 211.886 92.2284C212.107 92.3926 212.273 92.5828 212.385 92.7988C212.502 93.0106 212.56 93.2331 212.56 93.4664C212.56 93.5918 212.541 93.7236 212.502 93.8618C212.468 93.9958 212.407 94.1276 212.321 94.2572C212.239 94.3868 212.128 94.5078 211.99 94.6202C211.852 94.7282 211.681 94.8211 211.478 94.8989C211.841 95.0372 212.133 95.2403 212.353 95.5082C212.578 95.7761 212.69 96.1067 212.69 96.4999C212.69 96.824 212.614 97.1113 212.463 97.3619C212.316 97.6126 212.12 97.8265 211.873 98.0036C211.627 98.1765 211.344 98.3083 211.024 98.399C210.709 98.4898 210.383 98.5351 210.046 98.5351C209.855 98.5351 209.65 98.5179 209.43 98.4833C209.214 98.4487 208.996 98.3904 208.775 98.3083C208.555 98.2219 208.339 98.1095 208.127 97.9712C207.915 97.8286 207.723 97.6536 207.55 97.4462L208.01 96.8629C208.075 96.7635 208.172 96.7138 208.302 96.7138C208.401 96.7138 208.496 96.7462 208.587 96.811C208.678 96.8715 208.782 96.9406 208.898 97.0184C209.019 97.0919 209.162 97.161 209.326 97.2258C209.49 97.2863 209.696 97.3166 209.942 97.3166C210.344 97.3166 210.648 97.2258 210.856 97.0443C211.063 96.8629 211.167 96.636 211.167 96.3638C211.167 96.0959 211.059 95.8863 210.843 95.735C210.631 95.5838 210.285 95.5082 209.806 95.5082H209.054V94.4646H209.806C210.225 94.4646 210.547 94.3912 210.771 94.2443C210.996 94.0973 211.109 93.9029 211.109 93.6609C211.109 93.4405 211.009 93.259 210.81 93.1164C210.616 92.9738 210.326 92.9025 209.942 92.9025C209.713 92.9025 209.518 92.9263 209.358 92.9738C209.199 93.0214 209.06 93.0732 208.944 93.1294C208.831 93.1813 208.736 93.2309 208.658 93.2785C208.581 93.326 208.507 93.3498 208.438 93.3498C208.365 93.3498 208.302 93.3368 208.25 93.3109C208.198 93.2806 208.142 93.218 208.082 93.1229L207.719 92.5072Z" fill="white"/>
<path d="M217.716 95.5989C217.254 95.6205 216.865 95.6616 216.549 95.7221C216.234 95.7783 215.981 95.8517 215.791 95.9425C215.601 96.0332 215.465 96.1391 215.383 96.2601C215.3 96.3811 215.259 96.5128 215.259 96.6554C215.259 96.9363 215.341 97.1373 215.506 97.2582C215.674 97.3792 215.892 97.4397 216.16 97.4397C216.489 97.4397 216.772 97.3814 217.009 97.2647C217.251 97.1437 217.487 96.9622 217.716 96.7203V95.5989ZM214.047 92.7146C214.812 92.0145 215.733 91.6645 216.808 91.6645C217.197 91.6645 217.545 91.7294 217.852 91.859C218.159 91.9843 218.418 92.1615 218.63 92.3905C218.842 92.6152 219.001 92.8853 219.109 93.2007C219.222 93.5161 219.278 93.8618 219.278 94.2378V98.4379H218.552C218.401 98.4379 218.284 98.4163 218.202 98.3731C218.12 98.3256 218.055 98.2327 218.008 98.0944L217.865 97.6147C217.696 97.766 217.532 97.8999 217.372 98.0166C217.213 98.129 217.046 98.224 216.873 98.3018C216.7 98.3796 216.515 98.4379 216.316 98.4768C216.121 98.52 215.905 98.5416 215.668 98.5416C215.387 98.5416 215.128 98.5049 214.89 98.4314C214.652 98.3536 214.447 98.2391 214.274 98.0879C214.101 97.9367 213.967 97.7487 213.872 97.524C213.777 97.2993 213.73 97.0379 213.73 96.7397C213.73 96.5712 213.758 96.4048 213.814 96.2406C213.87 96.0721 213.961 95.9122 214.086 95.761C214.216 95.6097 214.382 95.4671 214.585 95.3332C214.788 95.1992 215.037 95.0826 215.331 94.9832C215.629 94.8838 215.975 94.8038 216.368 94.7433C216.761 94.6785 217.21 94.6396 217.716 94.6267V94.2378C217.716 93.7927 217.621 93.4643 217.431 93.2526C217.241 93.0365 216.966 92.9285 216.608 92.9285C216.348 92.9285 216.132 92.9587 215.959 93.0192C215.791 93.0797 215.642 93.1488 215.512 93.2266C215.383 93.3001 215.264 93.3671 215.156 93.4276C215.052 93.4881 214.935 93.5183 214.806 93.5183C214.693 93.5183 214.598 93.4902 214.52 93.434C214.443 93.3735 214.38 93.3044 214.332 93.2266L214.047 92.7146Z" fill="white"/>
<path d="M227.581 97.3684C228.134 97.3684 228.547 97.1913 228.819 96.8369C229.091 96.4826 229.227 95.9641 229.227 95.2813C229.227 94.6029 229.093 94.0865 228.825 93.7322C228.562 93.3779 228.158 93.2007 227.613 93.2007C227.069 93.2007 226.654 93.3692 226.369 93.7063C226.084 94.039 225.941 94.5381 225.941 95.2035C225.941 95.9079 226.075 96.4459 226.343 96.8175C226.615 97.1848 227.028 97.3684 227.581 97.3684ZM228.047 90.5821C227.641 90.608 227.293 90.688 227.004 90.8219C226.719 90.9516 226.481 91.1287 226.291 91.3534C226.105 91.5738 225.963 91.8395 225.863 92.1507C225.768 92.4575 225.712 92.7988 225.695 93.1748C225.803 93.0062 225.934 92.8528 226.09 92.7146C226.25 92.572 226.427 92.451 226.621 92.3516C226.82 92.2479 227.034 92.1679 227.263 92.1118C227.497 92.0556 227.745 92.0275 228.009 92.0275C228.449 92.0275 228.847 92.1053 229.201 92.2609C229.556 92.4164 229.856 92.6368 230.102 92.922C230.353 93.2072 230.543 93.5507 230.673 93.9526C230.807 94.3501 230.873 94.7909 230.873 95.2748C230.873 95.7761 230.794 96.2277 230.634 96.6295C230.478 97.0314 230.256 97.3749 229.966 97.6601C229.681 97.941 229.335 98.157 228.929 98.3083C228.523 98.4595 228.073 98.5351 227.581 98.5351C227.101 98.5351 226.658 98.4574 226.252 98.3018C225.85 98.1462 225.502 97.8934 225.208 97.5434C224.915 97.1934 224.686 96.7397 224.521 96.1823C224.357 95.6205 224.275 94.9356 224.275 94.1276C224.275 93.4492 224.338 92.8183 224.463 92.2349C224.588 91.6516 224.794 91.1417 225.079 90.7052C225.364 90.2645 225.738 89.9102 226.2 89.6422C226.663 89.3743 227.233 89.2145 227.911 89.1626L230.277 88.9811L230.361 89.8108C230.379 89.9879 230.353 90.1392 230.284 90.2645C230.215 90.3855 230.091 90.4503 229.914 90.4589L228.047 90.5821Z" fill="white"/>
<path d="M233.976 96.7138C234.157 96.9342 234.354 97.0897 234.566 97.1805C234.782 97.2712 235.015 97.3166 235.266 97.3166C235.508 97.3166 235.726 97.2712 235.92 97.1805C236.115 97.0897 236.279 96.9514 236.413 96.7656C236.551 96.5798 236.657 96.3465 236.731 96.0656C236.804 95.7804 236.841 95.4455 236.841 95.0609C236.841 94.672 236.808 94.3436 236.744 94.0757C236.683 93.8035 236.595 93.5831 236.478 93.4146C236.361 93.2461 236.219 93.1229 236.05 93.0451C235.886 92.9674 235.698 92.9285 235.486 92.9285C235.153 92.9285 234.87 92.9998 234.637 93.1424C234.404 93.2806 234.183 93.4773 233.976 93.7322V96.7138ZM233.892 92.6951C234.164 92.3883 234.473 92.1399 234.819 91.9497C235.164 91.7596 235.57 91.6645 236.037 91.6645C236.4 91.6645 236.731 91.7402 237.029 91.8914C237.331 92.0426 237.591 92.263 237.807 92.5525C238.027 92.8377 238.195 93.1921 238.312 93.6155C238.433 94.0347 238.494 94.5165 238.494 95.0609C238.494 95.5579 238.427 96.0181 238.293 96.4415C238.159 96.865 237.966 97.2323 237.716 97.5434C237.47 97.8546 237.169 98.0987 236.815 98.2759C236.465 98.4487 236.072 98.5351 235.635 98.5351C235.264 98.5351 234.946 98.479 234.682 98.3666C234.419 98.2499 234.183 98.0901 233.976 97.887V100.609H232.375V91.7877H233.354C233.561 91.7877 233.697 91.8849 233.762 92.0794L233.892 92.6951Z" fill="white"/>
<path d="M242.932 91.684C243.425 91.684 243.872 91.7639 244.274 91.9238C244.68 92.0837 245.026 92.3105 245.311 92.6044C245.6 92.8982 245.823 93.2569 245.979 93.6803C246.134 94.1038 246.212 94.577 246.212 95.0998C246.212 95.627 246.134 96.1023 245.979 96.5258C245.823 96.9493 245.6 97.3101 245.311 97.6083C245.026 97.9064 244.68 98.1354 244.274 98.2953C243.872 98.4552 243.425 98.5351 242.932 98.5351C242.435 98.5351 241.984 98.4552 241.577 98.2953C241.171 98.1354 240.823 97.9064 240.534 97.6083C240.249 97.3101 240.026 96.9493 239.866 96.5258C239.711 96.1023 239.633 95.627 239.633 95.0998C239.633 94.577 239.711 94.1038 239.866 93.6803C240.026 93.2569 240.249 92.8982 240.534 92.6044C240.823 92.3105 241.171 92.0837 241.577 91.9238C241.984 91.7639 242.435 91.684 242.932 91.684ZM242.932 97.3036C243.485 97.3036 243.894 97.1178 244.157 96.7462C244.425 96.3746 244.559 95.8301 244.559 95.1128C244.559 94.3955 244.425 93.8489 244.157 93.4729C243.894 93.097 243.485 92.909 242.932 92.909C242.37 92.909 241.953 93.0992 241.681 93.4794C241.413 93.8554 241.279 94.3998 241.279 95.1128C241.279 95.8258 241.413 96.3702 241.681 96.7462C241.953 97.1178 242.37 97.3036 242.932 97.3036Z" fill="white"/>
<path d="M253.487 91.7877V98.4379H251.886V95.4952H249.293V98.4379H247.693V91.7877H249.293V94.3091H251.886V91.7877H253.487Z" fill="white"/>
<path d="M261.341 97.3036C261.859 97.3036 262.242 97.1178 262.488 96.7462C262.734 96.3746 262.858 95.8301 262.858 95.1128C262.858 94.3955 262.734 93.8489 262.488 93.4729C262.242 93.097 261.859 92.909 261.341 92.909C260.822 92.909 260.44 93.0992 260.194 93.4794C259.947 93.8554 259.824 94.3998 259.824 95.1128C259.824 95.8301 259.945 96.3746 260.187 96.7462C260.433 97.1178 260.818 97.3036 261.341 97.3036ZM258.256 94.497C258.307 94.0606 258.415 93.6695 258.58 93.3239C258.748 92.9738 258.964 92.6778 259.228 92.4359C259.491 92.1939 259.8 92.0081 260.155 91.8784C260.513 91.7488 260.909 91.684 261.341 91.684C261.821 91.684 262.255 91.7639 262.644 91.9238C263.033 92.0837 263.365 92.3105 263.642 92.6044C263.918 92.8982 264.132 93.2569 264.284 93.6803C264.435 94.1038 264.51 94.577 264.51 95.0998C264.51 95.627 264.433 96.1023 264.277 96.5258C264.122 96.9493 263.903 97.3101 263.622 97.6083C263.342 97.9064 263.007 98.1354 262.618 98.2953C262.229 98.4552 261.803 98.5351 261.341 98.5351C260.891 98.5351 260.485 98.4682 260.122 98.3342C259.764 98.2002 259.453 98.008 259.189 97.7573C258.93 97.5067 258.718 97.2021 258.554 96.8434C258.394 96.4848 258.292 96.0807 258.249 95.6313H256.933V98.4379H255.332V91.7877H256.933V94.497H258.256Z" fill="white"/>
<path d="M268.701 97.3425C269.038 97.3425 269.304 97.2604 269.498 97.0962C269.697 96.932 269.796 96.7073 269.796 96.4221C269.796 96.3011 269.779 96.1888 269.744 96.0851C269.714 95.977 269.658 95.8841 269.576 95.8063C269.494 95.7286 269.382 95.6681 269.239 95.6249C269.101 95.5816 268.923 95.56 268.707 95.56H267.508V97.3425H268.701ZM267.508 92.8312V94.5748H268.558C268.714 94.5748 268.856 94.5532 268.986 94.51C269.116 94.4625 269.228 94.3977 269.323 94.3156C269.418 94.2291 269.492 94.1297 269.544 94.0174C269.595 93.9007 269.621 93.7732 269.621 93.635C269.621 93.5356 269.604 93.4384 269.569 93.3433C269.535 93.2439 269.477 93.1575 269.394 93.084C269.312 93.0062 269.202 92.9458 269.064 92.9025C268.93 92.855 268.761 92.8312 268.558 92.8312H267.508ZM268.604 91.7877C269.023 91.7877 269.384 91.8287 269.686 91.9108C269.993 91.9929 270.246 92.1053 270.445 92.2479C270.643 92.3905 270.79 92.5612 270.885 92.7599C270.98 92.9544 271.028 93.1661 271.028 93.3952C271.028 93.5377 271.008 93.6868 270.97 93.8424C270.935 93.9936 270.87 94.1405 270.775 94.2831C270.684 94.4257 270.559 94.5554 270.399 94.672C270.239 94.7887 270.036 94.8795 269.79 94.9443C270.01 94.9918 270.211 95.0588 270.393 95.1452C270.574 95.2273 270.73 95.3332 270.859 95.4628C270.989 95.5881 271.088 95.7372 271.157 95.91C271.231 96.0786 271.268 96.2687 271.268 96.4804C271.268 96.8175 271.196 97.1092 271.054 97.3555C270.916 97.6018 270.728 97.8049 270.49 97.9647C270.257 98.1246 269.984 98.2435 269.673 98.3212C269.366 98.399 269.044 98.4379 268.707 98.4379H265.985V91.7877H268.604Z" fill="white"/>
<path d="M276.277 95.5989C275.815 95.6205 275.426 95.6616 275.11 95.7221C274.795 95.7783 274.542 95.8517 274.352 95.9425C274.162 96.0332 274.026 96.1391 273.944 96.2601C273.862 96.3811 273.821 96.5128 273.821 96.6554C273.821 96.9363 273.903 97.1373 274.067 97.2582C274.235 97.3792 274.454 97.4397 274.722 97.4397C275.05 97.4397 275.333 97.3814 275.571 97.2647C275.813 97.1437 276.048 96.9622 276.277 96.7203V95.5989ZM272.608 92.7146C273.373 92.0145 274.294 91.6645 275.37 91.6645C275.759 91.6645 276.106 91.7294 276.413 91.859C276.72 91.9843 276.979 92.1615 277.191 92.3905C277.403 92.6152 277.563 92.8853 277.671 93.2007C277.783 93.5161 277.839 93.8618 277.839 94.2378V98.4379H277.113C276.962 98.4379 276.845 98.4163 276.763 98.3731C276.681 98.3256 276.616 98.2327 276.569 98.0944L276.426 97.6147C276.258 97.766 276.093 97.8999 275.934 98.0166C275.774 98.129 275.607 98.224 275.435 98.3018C275.262 98.3796 275.076 98.4379 274.877 98.4768C274.683 98.52 274.467 98.5416 274.229 98.5416C273.948 98.5416 273.689 98.5049 273.451 98.4314C273.213 98.3536 273.008 98.2391 272.835 98.0879C272.662 97.9367 272.529 97.7487 272.433 97.524C272.338 97.2993 272.291 97.0379 272.291 96.7397C272.291 96.5712 272.319 96.4048 272.375 96.2406C272.431 96.0721 272.522 95.9122 272.647 95.761C272.777 95.6097 272.943 95.4671 273.146 95.3332C273.35 95.1992 273.598 95.0826 273.892 94.9832C274.19 94.8838 274.536 94.8038 274.929 94.7433C275.322 94.6785 275.772 94.6396 276.277 94.6267V94.2378C276.277 93.7927 276.182 93.4643 275.992 93.2526C275.802 93.0365 275.527 92.9285 275.169 92.9285C274.909 92.9285 274.693 92.9587 274.521 93.0192C274.352 93.0797 274.203 93.1488 274.073 93.2266C273.944 93.3001 273.825 93.3671 273.717 93.4276C273.613 93.4881 273.496 93.5183 273.367 93.5183C273.254 93.5183 273.159 93.4902 273.082 93.434C273.004 93.3735 272.941 93.3044 272.894 93.2266L272.608 92.7146Z" fill="white"/>
<path d="M285.401 91.7877V98.4379H283.8V95.4952H281.207V98.4379H279.606V91.7877H281.207V94.3091H283.8V91.7877H285.401Z" fill="white"/>
<path d="M293.041 91.7877V98.4379H291.44V95.4952H288.847V98.4379H287.246V91.7877H288.847V94.3091H291.44V91.7877H293.041Z" fill="white"/>
<path d="M298.354 94.7822V92.8312H297.485C297.282 92.8312 297.113 92.8615 296.98 92.922C296.846 92.9782 296.735 93.0538 296.649 93.1488C296.567 93.2396 296.508 93.3433 296.474 93.46C296.439 93.5766 296.422 93.6911 296.422 93.8035C296.422 94.1103 296.524 94.3501 296.727 94.523C296.934 94.6958 297.211 94.7822 297.556 94.7822H298.354ZM299.877 91.7877V98.4379H298.354V95.7675H298.075C297.945 95.7675 297.837 95.7804 297.751 95.8063C297.669 95.8279 297.597 95.8604 297.537 95.9036C297.481 95.9425 297.431 95.9922 297.388 96.0526C297.349 96.1131 297.308 96.1801 297.265 96.2536L296.202 97.887C296.15 97.9777 296.094 98.0577 296.033 98.1268C295.977 98.1959 295.91 98.2543 295.832 98.3018C295.759 98.345 295.67 98.3796 295.566 98.4055C295.467 98.4271 295.346 98.4379 295.204 98.4379H294.095L295.774 96.0915C295.865 95.9273 295.971 95.7955 296.092 95.6962C296.213 95.5968 296.355 95.5168 296.519 95.4563C296.208 95.4002 295.942 95.3137 295.722 95.1971C295.506 95.0761 295.331 94.9378 295.197 94.7822C295.063 94.6224 294.966 94.4517 294.905 94.2702C294.845 94.0887 294.815 93.9094 294.815 93.7322C294.815 93.4859 294.862 93.2461 294.957 93.0127C295.057 92.7794 295.212 92.572 295.424 92.3905C295.636 92.209 295.908 92.0642 296.241 91.9562C296.573 91.8439 296.973 91.7877 297.44 91.7877H299.877Z" fill="white"/>
<path d="M159.294 121.973C159.631 121.973 159.897 121.891 160.092 121.727C160.29 121.562 160.39 121.338 160.39 121.053C160.39 120.932 160.372 120.819 160.338 120.716C160.308 120.607 160.251 120.515 160.169 120.437C160.087 120.359 159.975 120.299 159.832 120.255C159.694 120.212 159.517 120.19 159.301 120.19H158.102V121.973H159.294ZM158.102 117.462V119.205H159.152C159.307 119.205 159.45 119.184 159.579 119.14C159.709 119.093 159.821 119.028 159.917 118.946C160.012 118.86 160.085 118.76 160.137 118.648C160.189 118.531 160.215 118.404 160.215 118.265C160.215 118.166 160.197 118.069 160.163 117.974C160.128 117.874 160.07 117.788 159.988 117.714C159.906 117.637 159.796 117.576 159.657 117.533C159.523 117.485 159.355 117.462 159.152 117.462H158.102ZM159.197 116.418C159.616 116.418 159.977 116.459 160.28 116.541C160.586 116.623 160.839 116.736 161.038 116.878C161.237 117.021 161.384 117.192 161.479 117.39C161.574 117.585 161.621 117.797 161.621 118.026C161.621 118.168 161.602 118.317 161.563 118.473C161.528 118.624 161.464 118.771 161.368 118.914C161.278 119.056 161.152 119.186 160.992 119.302C160.833 119.419 160.63 119.51 160.383 119.575C160.604 119.622 160.805 119.689 160.986 119.776C161.168 119.858 161.323 119.964 161.453 120.093C161.582 120.219 161.682 120.368 161.751 120.54C161.824 120.709 161.861 120.899 161.861 121.111C161.861 121.448 161.79 121.74 161.647 121.986C161.509 122.232 161.321 122.435 161.083 122.595C160.85 122.755 160.578 122.874 160.267 122.952C159.96 123.029 159.638 123.068 159.301 123.068H156.578V116.418H159.197Z" fill="white"/>
<path d="M165.017 116.418V123.068H163.409V116.418H165.017ZM165.237 114.48C165.237 114.618 165.209 114.748 165.153 114.869C165.097 114.99 165.021 115.096 164.926 115.187C164.835 115.277 164.727 115.351 164.602 115.407C164.477 115.459 164.343 115.485 164.2 115.485C164.062 115.485 163.93 115.459 163.805 115.407C163.684 115.351 163.578 115.277 163.487 115.187C163.396 115.096 163.323 114.99 163.267 114.869C163.215 114.748 163.189 114.618 163.189 114.48C163.189 114.338 163.215 114.204 163.267 114.078C163.323 113.953 163.396 113.845 163.487 113.754C163.578 113.663 163.684 113.592 163.805 113.54C163.93 113.484 164.062 113.456 164.2 113.456C164.343 113.456 164.477 113.484 164.602 113.54C164.727 113.592 164.835 113.663 164.926 113.754C165.021 113.845 165.097 113.953 165.153 114.078C165.209 114.204 165.237 114.338 165.237 114.48Z" fill="white"/>
<path d="M171.342 121.928V117.643H169.708C169.665 118.201 169.611 118.704 169.546 119.153C169.481 119.598 169.406 119.996 169.319 120.346C169.233 120.696 169.138 121.001 169.034 121.26C168.935 121.519 168.827 121.742 168.71 121.928H171.342ZM174.116 121.882V124.818C174.116 124.965 174.073 125.082 173.986 125.168C173.904 125.255 173.796 125.298 173.662 125.298H172.664V123.068H167.686V124.844C167.686 124.957 167.649 125.06 167.576 125.155C167.507 125.251 167.396 125.298 167.245 125.298H166.234V121.928H166.422C166.573 121.928 166.72 121.908 166.863 121.869C167.005 121.826 167.142 121.74 167.271 121.61C167.405 121.48 167.53 121.295 167.647 121.053C167.768 120.806 167.876 120.48 167.971 120.074C168.066 119.663 168.148 119.16 168.217 118.564C168.291 117.967 168.349 117.252 168.392 116.418H172.897V121.882H174.116Z" fill="white"/>
<rect opacity="0.15" x="183.011" y="106.217" width="108.893" height="22.686" rx="4" fill="#111111"/>
<path d="M195.384 115.264H192.733V113.702H199.952V115.264H197.301V121.986H195.384V115.264Z" fill="white"/>
<path d="M206.734 120.211H202.887L202.154 121.986H200.189L203.882 113.702H205.775L209.479 121.986H207.467L206.734 120.211ZM206.13 118.755L204.816 115.583L203.503 118.755H206.13Z" fill="white"/>
<path d="M217.132 117.678C217.605 117.828 217.976 118.08 218.244 118.435C218.513 118.783 218.647 119.213 218.647 119.725C218.647 120.451 218.363 121.011 217.795 121.406C217.234 121.793 216.414 121.986 215.333 121.986H211.049V113.702H215.096C216.106 113.702 216.879 113.895 217.416 114.282C217.96 114.668 218.232 115.193 218.232 115.856C218.232 116.258 218.134 116.617 217.937 116.932C217.747 117.248 217.479 117.497 217.132 117.678ZM212.954 115.145V117.098H214.86C215.333 117.098 215.692 117.015 215.937 116.85C216.181 116.684 216.303 116.439 216.303 116.116C216.303 115.792 216.181 115.552 215.937 115.394C215.692 115.228 215.333 115.145 214.86 115.145H212.954ZM215.191 120.542C215.696 120.542 216.075 120.459 216.327 120.294C216.587 120.128 216.718 119.871 216.718 119.524C216.718 118.838 216.209 118.495 215.191 118.495H212.954V120.542H215.191Z" fill="white"/>
<path d="M220.808 113.702H222.725V120.424H226.879V121.986H220.808V113.702Z" fill="white"/>
<path d="M235.075 120.447V121.986H228.661V113.702H234.921V115.24H230.566V117.039H234.412V118.53H230.566V120.447H235.075Z" fill="white"/>
<path d="M239.027 115.264H236.376V113.702H243.595V115.264H240.944V121.986H239.027V115.264Z" fill="white"/>
<path d="M248.354 118.731L247.242 119.891V121.986H245.336V113.702H247.242V117.572L250.91 113.702H253.041L249.609 117.394L253.242 121.986H251.005L248.354 118.731Z" fill="white"/>
<path d="M254.807 113.702H256.724V121.986H254.807V113.702Z" fill="white"/>
<path d="M259.968 122.081C259.645 122.081 259.372 121.97 259.151 121.749C258.931 121.528 258.82 121.252 258.82 120.921C258.82 120.581 258.931 120.309 259.151 120.104C259.372 119.891 259.645 119.785 259.968 119.785C260.292 119.785 260.564 119.891 260.785 120.104C261.006 120.309 261.116 120.581 261.116 120.921C261.116 121.252 261.006 121.528 260.785 121.749C260.564 121.97 260.292 122.081 259.968 122.081Z" fill="white"/>
<path d="M266.807 122.128C265.624 122.128 264.701 121.8 264.038 121.146C263.383 120.491 263.055 119.556 263.055 118.341V113.702H264.973V118.27C264.973 119.753 265.588 120.495 266.819 120.495C267.419 120.495 267.876 120.317 268.192 119.962C268.507 119.599 268.665 119.035 268.665 118.27V113.702H270.559V118.341C270.559 119.556 270.227 120.491 269.565 121.146C268.91 121.8 267.991 122.128 266.807 122.128Z" fill="white"/>
<path d="M278.446 120.211H274.599L273.866 121.986H271.901L275.594 113.702H277.487L281.191 121.986H279.179L278.446 120.211ZM277.842 118.755L276.528 115.583L275.215 118.755H277.842Z" fill="white"/>
</g>
</svg>
