<svg width="54" height="54" viewBox="0 0 54 54" fill="none" xmlns="http://www.w3.org/2000/svg">
<circle cx="27" cy="27" r="27" fill="url(#paint0_linear_6_355)"/>
<circle cx="27" cy="27" r="27" fill="url(#paint1_linear_6_355)"/>
<mask id="mask0_6_355" style="mask-type:alpha" maskUnits="userSpaceOnUse" x="0" y="0" width="54" height="54">
<circle cx="27" cy="27" r="27" fill="white"/>
</mask>
<g mask="url(#mask0_6_355)">
<g filter="url(#filter0_d_6_355)">
<path d="M25.7841 47.9119C22.3176 33.8003 15.1503 27.6338 12 26.3145C20.9801 20.9646 27.1148 28.5436 29.0596 33.0019C40.0596 11.0292 58.9365 3.78454 67 2.90881C47.2109 8.74318 34.1092 40.781 32.6762 44.1929C31.5298 46.9225 27.6038 47.8096 25.7841 47.9119Z" fill="white"/>
</g>
</g>
<defs>
<filter id="filter0_d_6_355" x="7.11111" y="0.464369" width="64.7778" height="54.7809" filterUnits="userSpaceOnUse" color-interpolation-filters="sRGB">
<feFlood flood-opacity="0" result="BackgroundImageFix"/>
<feColorMatrix in="SourceAlpha" type="matrix" values="0 0 0 0 0 0 0 0 0 0 0 0 0 0 0 0 0 0 127 0" result="hardAlpha"/>
<feOffset dy="2.44444"/>
<feGaussianBlur stdDeviation="2.44444"/>
<feComposite in2="hardAlpha" operator="out"/>
<feColorMatrix type="matrix" values="0 0 0 0 0 0 0 0 0 0 0 0 0 0 0 0 0 0 0.15 0"/>
<feBlend mode="normal" in2="BackgroundImageFix" result="effect1_dropShadow_6_355"/>
<feBlend mode="normal" in="SourceGraphic" in2="effect1_dropShadow_6_355" result="shape"/>
</filter>
<linearGradient id="paint0_linear_6_355" x1="2.34799e-07" y1="27" x2="54" y2="27" gradientUnits="userSpaceOnUse">
<stop stop-color="#EEC233"/>
<stop offset="1" stop-color="#22C1C3"/>
</linearGradient>
<linearGradient id="paint1_linear_6_355" x1="27" y1="0.00190019" x2="27" y2="53.9981" gradientUnits="userSpaceOnUse">
<stop stop-color="#93C01F"/>
<stop offset="0.1" stop-color="#93C01F" stop-opacity="0.8"/>
<stop offset="0.3" stop-color="#93C01F" stop-opacity="0.6"/>
<stop offset="0.4" stop-color="#93C01F" stop-opacity="0.3"/>
<stop offset="0.6" stop-color="#93C01F" stop-opacity="0.2"/>
<stop offset="0.7" stop-color="#93C01F" stop-opacity="0.1"/>
<stop offset="0.9" stop-color="#93C01F" stop-opacity="0"/>
<stop offset="1" stop-color="#93C01F" stop-opacity="0"/>
</linearGradient>
</defs>
</svg>
