<svg width="32" height="32" viewBox="0 0 32 32" fill="none" xmlns="http://www.w3.org/2000/svg">
<path d="M21.8571 5.71429C21.8571 6.26657 22.3049 6.71429 22.8571 6.71429C23.4094 6.71429 23.8571 6.26657 23.8571 5.71429H21.8571ZM23.8571 21C23.8571 20.4477 23.4094 20 22.8571 20C22.3049 20 21.8571 20.4477 21.8571 21H23.8571ZM3 8.11429V23.8857H5V8.11429H3ZM8.11429 29H22.1714V27H8.11429V29ZM23.8571 27.3143V22.1429H21.8571V27.3143H23.8571ZM23.8571 22.1429V21H21.8571V22.1429H23.8571ZM7.5 29H21.7143V27H7.5V29ZM22.8571 21.1429H9.14286V23.1429H22.8571V21.1429ZM9.14286 21.1429H7.5V23.1429H9.14286V21.1429ZM21.1429 3H9.14286V5H21.1429V3ZM9.14286 3H8.11429V5H9.14286V3ZM10.1429 22.1429V4H8.14286V22.1429H10.1429ZM3.57143 25.0714C3.57143 27.2411 5.33031 29 7.5 29V27C6.43488 27 5.57143 26.1365 5.57143 25.0714H3.57143ZM22.1714 29C23.1024 29 23.8571 28.2453 23.8571 27.3143H21.8571C21.8571 27.1407 21.9979 27 22.1714 27V29ZM3 23.8857C3 26.7103 5.28974 29 8.11429 29V27C6.39431 27 5 25.6057 5 23.8857H3ZM5.57143 25.0714C5.57143 24.0063 6.43488 23.1429 7.5 23.1429V21.1429C5.33031 21.1429 3.57143 22.9017 3.57143 25.0714H5.57143ZM5 8.11429C5 6.39431 6.39431 5 8.11429 5V3C5.28975 3 3 5.28974 3 8.11429H5ZM23.8571 5.71429C23.8571 4.21523 22.6419 3 21.1429 3V5C21.5373 5 21.8571 5.3198 21.8571 5.71429H23.8571Z" fill="#3B9C25"/>
<ellipse cx="20.1787" cy="13.1785" rx="5" ry="5" stroke="#3B9C25" stroke-width="2"/>
<path d="M23.8572 16.8572L28 21" stroke="#3B9C25" stroke-width="2" stroke-linecap="round"/>
</svg>
