<svg width="224" height="37" viewBox="0 0 224 37" fill="none" xmlns="http://www.w3.org/2000/svg">
<g filter="url(#filter0_f_948_21014)">
<path d="M18.4243 31.4899C25.8154 31.4899 31.8072 25.5015 31.8072 18.1146C31.8072 10.7276 25.8154 4.73926 18.4243 4.73926C11.033 4.73926 5.04126 10.7276 5.04126 18.1146C5.04126 25.5015 11.033 31.4899 18.4243 31.4899Z" fill="black" fill-opacity="0.25"/>
</g>
<path d="M18.4241 3.81575C11.033 3.81575 5.04118 9.804 5.04118 17.1911C5.04117 24.5781 11.033 30.5664 18.4241 30.5664C25.8154 30.5664 31.8071 24.5781 31.8071 17.1911C31.8071 9.804 25.8154 3.81576 18.4241 3.81575Z" fill="#D1D1D1"/>
<path d="M18.4243 29.7579C25.8154 29.7579 31.8072 23.7696 31.8072 16.3825C31.8072 8.99555 25.8154 3.0072 18.4243 3.0072C11.033 3.0072 5.04126 8.99555 5.04126 16.3825C5.04126 23.7696 11.033 29.7579 18.4243 29.7579Z" fill="white"/>
<path d="M18.3829 29.7507C25.7741 29.7507 31.7659 23.7624 31.7659 16.3754C31.7659 8.98831 25.7741 3 18.3829 3C10.9917 3 5 8.98831 5 16.3754C5 23.7624 10.9917 29.7507 18.3829 29.7507Z" fill="url(#paint0_radial_948_21014)"/>
<path d="M7.79785 8.26501L29.0645 24.4703" stroke="#D1D1D1" stroke-width="0.633201" stroke-miterlimit="10"/>
<path d="M7.46704 8.76819L28.7337 24.9735" stroke="#E2E2E2" stroke-width="0.633201" stroke-miterlimit="10"/>
<g filter="url(#filter1_f_948_21014)">
<path d="M36.5758 31.9814C43.967 31.9814 49.9588 25.993 49.9588 18.606C49.9588 11.2191 43.967 5.23071 36.5758 5.23071C29.1845 5.23071 23.1929 11.2191 23.1929 18.606C23.1929 25.993 29.1845 31.9814 36.5758 31.9814Z" fill="black" fill-opacity="0.25"/>
</g>
<path d="M36.617 4.52327C29.2258 4.52327 23.234 10.5115 23.234 17.8986C23.234 25.2856 29.2258 31.2739 36.617 31.2739C44.0082 31.2739 50 25.2856 50 17.8986C50 10.5115 44.0083 4.52327 36.617 4.52327Z" fill="#D1D1D1"/>
<path d="M36.5758 30.4583C43.967 30.4583 49.9588 24.4699 49.9588 17.0829C49.9588 9.69583 43.967 3.70752 36.5758 3.70752C29.1845 3.70752 23.1929 9.69583 23.1929 17.0829C23.1929 24.4699 29.1845 30.4583 36.5758 30.4583Z" fill="white"/>
<path d="M36.5758 30.4583C43.967 30.4583 49.9588 24.4699 49.9588 17.0829C49.9588 9.69583 43.967 3.70752 36.5758 3.70752C29.1845 3.70752 23.1929 9.69583 23.1929 17.0829C23.1929 24.4699 29.1845 30.4583 36.5758 30.4583Z" fill="url(#paint1_radial_948_21014)"/>
<path d="M36.4746 3.72241V30.4433" stroke="#D1D1D1" stroke-width="0.633201" stroke-miterlimit="10"/>
<path d="M37.0811 3.72241V30.4433" stroke="#E2E2E2" stroke-width="0.633201" stroke-miterlimit="10"/>
<g clip-path="url(#clip0_948_21014)">
<path d="M68.0073 12.8218H63.2161V10H76.2638V12.8218H71.4725V24.9643H68.0073V12.8218Z" fill="white"/>
<path d="M88.5201 21.7576H81.5685L80.2424 24.9643H76.6917L83.3652 10H86.7876L93.4825 24.9643H89.8463L88.5201 21.7576ZM87.4293 19.1282L85.055 13.399L82.6807 19.1282H87.4293Z" fill="white"/>
<path d="M107.314 17.1828C108.169 17.4536 108.839 17.9097 109.324 18.551C109.809 19.1781 110.051 19.9548 110.051 20.8811C110.051 22.1923 109.538 23.2042 108.511 23.9167C107.499 24.6151 106.016 24.9643 104.062 24.9643H96.3193V10H103.635C105.46 10 106.857 10.3492 107.827 11.0475C108.811 11.7458 109.303 12.6936 109.303 13.8907C109.303 14.6175 109.125 15.266 108.768 15.8361C108.426 16.4061 107.941 16.855 107.314 17.1828ZM99.7631 12.6081V16.1353H103.207C104.062 16.1353 104.711 15.9857 105.153 15.6864C105.595 15.3871 105.816 14.9453 105.816 14.361C105.816 13.7767 105.595 13.342 105.153 13.057C104.711 12.7577 104.062 12.6081 103.207 12.6081H99.7631ZM103.806 22.3562C104.718 22.3562 105.403 22.2066 105.859 21.9073C106.33 21.608 106.565 21.1448 106.565 20.5177C106.565 19.2778 105.645 18.6579 103.806 18.6579H99.7631V22.3562H103.806Z" fill="white"/>
<path d="M113.958 10H117.423V22.1424H124.931V24.9643H113.958V10Z" fill="white"/>
<path d="M139.744 22.1852V24.9643H128.151V10H139.466V12.7791H131.594V16.0285H138.546V18.722H131.594V22.1852H139.744Z" fill="white"/>
<path d="M146.886 12.8218H142.094V10H155.142V12.8218H150.351V24.9643H146.886V12.8218Z" fill="white"/>
<path d="M163.744 19.0854L161.734 21.1804V24.9643H158.29V10H161.734V16.9904L168.365 10H172.215L166.012 16.6698L172.578 24.9643H168.536L163.744 19.0854Z" fill="white"/>
<path d="M175.407 10H178.872V24.9643H175.407V10Z" fill="white"/>
<path d="M184.735 25.1353C184.151 25.1353 183.659 24.9358 183.26 24.5367C182.86 24.1377 182.661 23.6388 182.661 23.0403C182.661 22.4275 182.86 21.9358 183.26 21.5652C183.659 21.1804 184.151 20.988 184.735 20.988C185.32 20.988 185.812 21.1804 186.211 21.5652C186.611 21.9358 186.81 22.4275 186.81 23.0403C186.81 23.6388 186.611 24.1377 186.211 24.5367C185.812 24.9358 185.32 25.1353 184.735 25.1353Z" fill="white"/>
<path d="M197.095 25.2208C194.957 25.2208 193.288 24.6293 192.091 23.4464C190.907 22.2636 190.316 20.5747 190.316 18.38V10H193.78V18.2517C193.78 20.931 194.893 22.2707 197.117 22.2707C198.201 22.2707 199.028 21.95 199.598 21.3087C200.169 20.6531 200.455 19.6341 200.455 18.2517V10H203.876V18.38C203.876 20.5747 203.277 22.2636 202.079 23.4464C200.896 24.6293 199.235 25.2208 197.095 25.2208Z" fill="white"/>
<path d="M218.131 21.7576H211.18L209.854 24.9643H206.303L212.976 10H216.399L223.093 24.9643H219.457L218.131 21.7576ZM217.041 19.1282L214.666 13.399L212.292 19.1282H217.041Z" fill="white"/>
</g>
<defs>
<filter id="filter0_f_948_21014" x="0.998408" y="0.696406" width="34.8516" height="34.8363" filterUnits="userSpaceOnUse" color-interpolation-filters="sRGB">
<feFlood flood-opacity="0" result="BackgroundImageFix"/>
<feBlend mode="normal" in="SourceGraphic" in2="BackgroundImageFix" result="shape"/>
<feGaussianBlur stdDeviation="2.02143" result="effect1_foregroundBlur_948_21014"/>
</filter>
<filter id="filter1_f_948_21014" x="19.15" y="1.18786" width="34.8516" height="34.8364" filterUnits="userSpaceOnUse" color-interpolation-filters="sRGB">
<feFlood flood-opacity="0" result="BackgroundImageFix"/>
<feBlend mode="normal" in="SourceGraphic" in2="BackgroundImageFix" result="shape"/>
<feGaussianBlur stdDeviation="2.02143" result="effect1_foregroundBlur_948_21014"/>
</filter>
<radialGradient id="paint0_radial_948_21014" cx="0" cy="0" r="1" gradientUnits="userSpaceOnUse" gradientTransform="translate(18.3829 16.3754) rotate(90) scale(13.3754 13.3829)">
<stop stop-color="white" stop-opacity="0"/>
<stop offset="1" stop-color="#E2E2E2" stop-opacity="0.25"/>
</radialGradient>
<radialGradient id="paint1_radial_948_21014" cx="0" cy="0" r="1" gradientUnits="userSpaceOnUse" gradientTransform="translate(36.5758 17.0829) rotate(90) scale(13.3754 13.3829)">
<stop stop-color="white" stop-opacity="0"/>
<stop offset="1" stop-color="#E2E2E2" stop-opacity="0.25"/>
</radialGradient>
<clipPath id="clip0_948_21014">
<rect width="159.909" height="15.2208" fill="white" transform="translate(63.2161 10)"/>
</clipPath>
</defs>
</svg>
