<svg width="77" height="11" viewBox="0 0 77 11" fill="none" xmlns="http://www.w3.org/2000/svg">
<g clip-path="url(#clip0_1_4003)">
<path fill-rule="evenodd" clip-rule="evenodd" d="M57.0882 1.47909L54.3266 1.51145L56.5704 2.16953L57.455 2.13717L57.9081 2.14796L58.3612 2.20189L58.7927 2.25583L59.2458 2.33135L60.1519 2.55789L60.7453 2.806L61.1228 3.07569L61.2738 3.2375L61.4789 3.5827L61.5434 3.77688L61.5866 3.99263V4.20838L61.5652 4.31625L61.5543 4.33783V4.43492L61.522 4.49964V4.532L61.4895 4.63988L61.3925 4.85563L61.0905 5.25477L60.9393 5.38422L60.8961 5.43816L60.6697 5.63233L62.0505 7.25047L62.6115 6.90527L63.507 6.21488L63.8413 5.86967L64.1865 5.3303L64.2619 5.1577L64.2837 5.06061L64.316 4.97431L64.3592 4.62911V4.45651L64.3269 4.28391L64.2333 3.97053L64.0649 3.66819L63.8528 3.38767L63.5721 3.11802L63.229 2.85909L62.5928 2.52468L61.7501 2.20107L61.3508 2.06078L60.9516 1.95293L60.5312 1.85587L60.1208 1.79113L59.366 1.66169L58.6106 1.56457L58.2222 1.52142L57.8448 1.49985L57.4564 1.47827H57.0788L57.0882 1.47909Z" fill="#506484"/>
<path fill-rule="evenodd" clip-rule="evenodd" d="M49.7746 3.31278L50.3571 3.16176L49.6992 2.13696L48.8362 2.33114L45.8479 3.28046L44.6181 3.8522L43.2698 4.68281L42.6764 5.2114L42.5145 5.384L42.1802 5.93416L42.1047 6.10676L42.0399 6.66772L42.0507 6.8511L42.2017 7.34733L42.3528 7.6386L42.6548 8.04853L42.7951 8.18877L43.41 8.66342L44.2299 9.08414L45.6107 9.53722L47.8869 9.90399L50.5945 10.0011L53.3129 9.82849L56.6786 9.24596L58.3292 8.7713L58.4046 8.73894L59.3323 8.45847L55.9019 7.06689L52.8382 7.4121H48.5986L47.5191 7.26226L46.7314 7.02497L46.57 6.93874L46.3327 6.77667L46.2569 6.70144L46.095 6.41018L46.0087 6.1297L45.9764 5.86002L46.0627 5.46088L46.3216 5.07252L46.5696 4.82441L47.4975 4.1987L49.7736 3.31413L49.7746 3.31278Z" fill="#506484"/>
<path fill-rule="evenodd" clip-rule="evenodd" d="M65.8461 3.46317L65.6519 3.76522L65.5009 4.11042L65.4362 4.4772V10.4211H67.3025V4.87629L69.2656 9.14814L69.6648 9.78464L70.0209 10.1622L70.4631 10.4643L70.6033 10.5182L70.9378 10.5937L71.132 10.6045L71.1751 10.5937L71.5311 10.5721L71.6066 10.5505L71.6929 10.5398L71.8546 10.4966L72.1135 10.3564L72.1353 10.324L72.2323 10.2593L72.2539 10.2269L72.351 10.1622L72.5559 9.90329L72.7394 9.60124L74.9507 4.81153V10.4211H76.8278V4.90859L76.7847 4.48788L76.7415 4.2937L76.6121 3.91614L76.4179 3.57094L76.1697 3.29046L75.8676 3.05314L75.695 2.96684L75.3176 2.83739L74.8969 2.79423L74.4005 2.83739L73.9908 2.9992L73.7319 3.1718L73.3974 3.47385L73.0522 4.05638L73.009 4.2074L71.1104 8.69501L69.2118 4.08869L69.1255 3.92688L68.9313 3.64641L68.5862 3.26884L68.3057 3.06388L68.1546 2.97758L67.8417 2.85891L67.4858 2.79419H67.0975L66.7307 2.85891L66.3964 3.00993L66.0943 3.2149L65.8461 3.46317Z" fill="#506484"/>
<path fill-rule="evenodd" clip-rule="evenodd" d="M16.3864 2.75122V4.69296H25.0924V5.58833H16.3864V7.56244H25.0924V8.41471H16.4188V10.3565H24.6389L24.6604 10.3457L25.146 10.3025L25.6313 10.1731L26.0521 9.93573L26.1384 9.86022L26.2354 9.7955L26.408 9.64447L26.6994 9.26691L26.7532 9.15904L26.818 9.06195L26.9151 8.84619L26.9258 8.78147L26.9906 8.61966L27.0446 8.38233L27.0984 7.86453L27.066 7.48696L26.969 7.14177L26.8071 6.81814L26.6022 6.52687L26.7857 6.17089L26.8611 5.97671V5.94435L26.9366 5.79265L27.0227 5.40429L27.0551 5.03751L27.0021 4.54055L26.8399 4.07665L26.5916 3.68829L26.2692 3.36467L26.0851 3.21366L25.8805 3.09495L25.4377 2.90077L24.9418 2.78213L16.3867 2.74976L16.3864 2.75122Z" fill="#506484"/>
<path fill-rule="evenodd" clip-rule="evenodd" d="M14.5095 2.82722L14.4664 2.78407L14.434 2.7625L14.3693 2.75171H12.8267L12.7404 2.7625L12.6756 2.82722L12.6217 2.89194L12.6109 2.98903V10.1518L12.6217 10.2273L12.6756 10.3136L12.7404 10.3568L12.8267 10.3784H14.3693L14.434 10.3568L14.4664 10.3352L14.5095 10.3136L14.5527 10.2273L14.5635 10.1842V10.1626V10.1518H14.5743V2.98903L14.5523 2.89179L14.5088 2.82708L14.5095 2.82722Z" fill="#506484"/>
<path fill-rule="evenodd" clip-rule="evenodd" d="M28.8576 2.75172L28.7713 2.76248L28.7065 2.82725L28.6527 2.89195L28.642 2.98904V10.1518L28.6527 10.2273L28.7065 10.3136L28.7714 10.3568L28.8577 10.3784H30.4002L30.465 10.3568L30.4974 10.3352L30.5406 10.3136L30.5837 10.2273L30.5944 10.1842V10.1626V10.1518H30.6051V2.98904L30.5837 2.89195L30.5406 2.82722L30.4974 2.78407L30.465 2.7625L30.4003 2.75171L28.8576 2.75172Z" fill="#506484"/>
<path fill-rule="evenodd" clip-rule="evenodd" d="M39.3644 2.79521L35.33 5.17927L34.8877 5.59999L34.6288 6.07464V2.78442H32.4821V10.4219H34.6288V7.17485L34.661 7.27194L34.8336 7.57399L34.9417 7.72501L35.2006 7.98391L35.4486 8.17808L39.3644 10.4219H43.4205L36.743 6.61391L43.3662 2.79511L39.3644 2.79521Z" fill="#506484"/>
<path fill-rule="evenodd" clip-rule="evenodd" d="M9.04027 2.81643L8.47932 2.75171H0.000366211V10.3892H8.53296L8.85659 10.3676L8.9321 10.346L9.191 10.3029L9.3636 10.2382L9.39596 10.2166L9.52542 10.1842L9.80589 10.0548L10.0756 9.88217L10.3345 9.66642L10.7552 9.15941L10.8307 9.00839L10.8415 8.96523L10.9062 8.86814L11.0357 8.56609L11.0788 8.30719L11.1004 8.23168L11.122 8.05908V7.89726H11.1328L11.122 7.81097L11.1112 7.76781V7.73545L11.0794 7.55258L10.9393 7.19664L10.529 6.52758L10.5721 6.43049L10.6261 6.34419L10.7124 6.1716V6.13923L10.8526 5.81561L10.9389 5.44883L10.9713 5.09284L10.9176 4.53319L10.7554 4.04771L10.5078 3.6488L10.1847 3.3144L9.97947 3.17418L9.53721 2.95841L9.04069 2.81813L9.04027 2.81643ZM2.04964 4.69349H8.91052V5.55648H2.04964V4.69349ZM8.91052 7.5306V8.41517H2.04964V7.5306H8.91052Z" fill="#506484"/>
<path fill-rule="evenodd" clip-rule="evenodd" d="M52.2772 5.17898H52.2881L57.5521 2.91362L48.8149 0.000976562L52.2772 5.17898Z" fill="#F16763"/>
<path fill-rule="evenodd" clip-rule="evenodd" d="M52.4823 5.40562H52.4716L63.5941 9.7207L57.7462 3.13989L52.4823 5.40562Z" fill="#3399FF"/>
</g>
<defs>
<clipPath id="clip0_1_4003">
<rect width="76.8302" height="10.6041" fill="white"/>
</clipPath>
</defs>
</svg>
