<svg width="232" height="32" viewBox="0 0 232 32" fill="none" xmlns="http://www.w3.org/2000/svg">
<g clip-path="url(#clip0_1_3864)">
<path d="M17.3758 31.0363C25.2744 31.0363 31.6775 24.6368 31.6775 16.7427C31.6775 8.84856 25.2744 2.4491 17.3758 2.4491C9.47708 2.4491 3.07397 8.84856 3.07397 16.7427C3.07397 24.6368 9.47708 31.0363 17.3758 31.0363Z" fill="#888888"/>
<path d="M17.3758 30.0493C25.2744 30.0493 31.6775 23.65 31.6775 15.7557C31.6775 7.86162 25.2744 1.46216 17.3758 1.46216C9.47708 1.46216 3.07397 7.86162 3.07397 15.7557C3.07397 23.65 9.47708 30.0493 17.3758 30.0493Z" fill="white" stroke="#888888" stroke-width="0.338336" stroke-miterlimit="10"/>
<path d="M6.01971 7.08081L28.7464 24.3987" stroke="#888888" stroke-width="0.676671" stroke-miterlimit="10"/>
<path d="M36.7735 31.5616C44.672 31.5616 51.0752 25.1621 51.0752 17.268C51.0752 9.37385 44.672 2.97437 36.7735 2.97437C28.8747 2.97437 22.4717 9.37385 22.4717 17.268C22.4717 25.1621 28.8747 31.5616 36.7735 31.5616Z" fill="#888888"/>
<path d="M36.7735 30.7978C44.672 30.7978 51.0752 24.3983 51.0752 16.5042C51.0752 8.60999 44.672 2.21057 36.7735 2.21057C28.8747 2.21057 22.4717 8.60999 22.4717 16.5042C22.4717 24.3983 28.8747 30.7978 36.7735 30.7978Z" fill="white" stroke="#888888" stroke-width="0.338336" stroke-miterlimit="10"/>
<path d="M36.7734 2.22644V30.7817" stroke="#888888" stroke-width="0.676671" stroke-miterlimit="10"/>
<g clip-path="url(#clip1_1_3864)">
<path d="M66.1412 11.3962H61.0305V8.38623H74.9481V11.3962H69.8374V24.3482H66.1412V11.3962Z" fill="#888888"/>
<path d="M88.0215 20.9277H80.6065L79.192 24.3482H75.4045L82.523 8.38623H86.1736L93.3148 24.3482H89.4362L88.0215 20.9277ZM86.858 18.123L84.3255 12.0119L81.7929 18.123H86.858Z" fill="#888888"/>
<path d="M108.068 16.0479C108.981 16.3368 109.696 16.8232 110.213 17.5073C110.73 18.1762 110.988 19.0047 110.988 19.9928C110.988 21.3914 110.441 22.4707 109.346 23.2308C108.266 23.9757 106.684 24.3482 104.6 24.3482H96.3407V8.38623H104.144C106.091 8.38623 107.581 8.75867 108.616 9.50356C109.665 10.2484 110.19 11.2594 110.19 12.5363C110.19 13.3116 110 14.0033 109.619 14.6114C109.254 15.2194 108.737 15.6983 108.068 16.0479ZM100.014 11.1682V14.9306H103.687C104.6 14.9306 105.292 14.771 105.764 14.4517C106.235 14.1325 106.471 13.6613 106.471 13.038C106.471 12.4147 106.235 11.951 105.764 11.647C105.292 11.3278 104.6 11.1682 103.687 11.1682H100.014ZM104.326 21.5662C105.3 21.5662 106.03 21.4066 106.517 21.0873C107.018 20.7681 107.269 20.274 107.269 19.6051C107.269 18.2826 106.288 17.6213 104.326 17.6213H100.014V21.5662H104.326Z" fill="#888888"/>
<path d="M115.156 8.38623H118.852V21.3381H126.86V24.3482H115.156V8.38623Z" fill="#888888"/>
<path d="M142.66 21.3837V24.3482H130.294V8.38623H142.364V11.3506H133.967V14.8166H141.382V17.6897H133.967V21.3837H142.66Z" fill="#888888"/>
<path d="M150.278 11.3962H145.168V8.38623H159.085V11.3962H153.974V24.3482H150.278V11.3962Z" fill="#888888"/>
<path d="M168.261 18.0774L166.116 20.312V24.3482H162.443V8.38623H166.116V15.8427L173.189 8.38623H177.296L170.679 15.5007L177.684 24.3482H173.371L168.261 18.0774Z" fill="#888888"/>
<path d="M180.701 8.38623H184.397V24.3482H180.701V8.38623Z" fill="#888888"/>
<path d="M190.651 24.5306C190.027 24.5306 189.503 24.3177 189.077 23.8921C188.651 23.4664 188.438 22.9343 188.438 22.2959C188.438 21.6422 188.651 21.1177 189.077 20.7225C189.503 20.312 190.027 20.1068 190.651 20.1068C191.275 20.1068 191.799 20.312 192.225 20.7225C192.651 21.1177 192.864 21.6422 192.864 22.2959C192.864 22.9343 192.651 23.4664 192.225 23.8921C191.799 24.3177 191.275 24.5306 190.651 24.5306Z" fill="#888888"/>
<path d="M203.835 24.6217C201.554 24.6217 199.774 23.9908 198.497 22.7291C197.234 21.4674 196.604 19.6659 196.604 17.3249V8.38623H200.299V17.1881C200.299 20.046 201.486 21.475 203.858 21.475C205.014 21.475 205.897 21.1329 206.505 20.4488C207.114 19.7496 207.418 18.6626 207.418 17.1881V8.38623H211.068V17.3249C211.068 19.6659 210.429 21.4674 209.151 22.7291C207.89 23.9908 206.118 24.6217 203.835 24.6217Z" fill="#888888"/>
<path d="M226.273 20.9277H218.859L217.444 24.3482H213.656L220.774 8.38623H224.425L231.566 24.3482H227.688L226.273 20.9277ZM225.11 18.123L222.577 12.0119L220.045 18.123H225.11Z" fill="#888888"/>
</g>
</g>
<defs>
<clipPath id="clip0_1_3864">
<rect width="231.044" height="32" fill="white"/>
</clipPath>
<clipPath id="clip1_1_3864">
<rect width="170.57" height="16.2355" fill="white" transform="translate(61.0305 8.38623)"/>
</clipPath>
</defs>
</svg>
