<svg width="60" height="40" viewBox="0 0 60 40" fill="none" xmlns="http://www.w3.org/2000/svg">
<g clip-path="url(#clip0_1_4004)">
<path d="M20.8339 8.82686H20.125L19.0289 3.51303V8.8363H18.3862V2.15836H19.4162L20.5032 7.49124L21.5521 2.15836H22.5821V8.8363H21.8828V3.46533L20.8339 8.82686Z" fill="#2B2B2B"/>
<path d="M24.0749 8.8363H23.3377V2.15821H24.0749V8.8363Z" fill="#2B2B2B"/>
<path d="M25.567 5.8312V8.8363H24.8298V2.15821H25.567V5.16347H27.1926V2.15821H27.9295V8.8363H27.1926V5.8312H25.567Z" fill="#2B2B2B"/>
<path d="M29.4237 8.8363H28.6865V2.15821H29.4237V8.8363Z" fill="#2B2B2B"/>
<mask id="mask0_1_4004" style="mask-type:luminance" maskUnits="userSpaceOnUse" x="-33" y="-26" width="128" height="92">
<path d="M-32.5751 -25.5388H94.5027V65.1705H-32.5751V-25.5388Z" fill="white"/>
</mask>
<g mask="url(#mask0_1_4004)">
<path d="M33.1 3.77373V4.37472H32.4007V3.73563C32.4007 3.13449 32.1644 2.77197 31.6257 2.77197C31.0967 2.77197 30.8509 3.13449 30.8509 3.73563V7.26538C30.8509 7.86637 31.0967 8.22889 31.6257 8.22889C32.1644 8.22889 32.4007 7.86637 32.4007 7.26538V6.39727H33.1V7.22729C33.1 8.23849 32.6275 8.90637 31.6069 8.90637C30.5957 8.90637 30.1232 8.23849 30.1232 7.22729V3.77373C30.1232 2.76253 30.5957 2.09464 31.6069 2.09464C32.6275 2.09464 33.1 2.76253 33.1 3.77373Z" fill="#2B2B2B"/>
<path d="M34.781 8.84363V2.84286H33.562V2.16553H36.7372V2.84286H35.5182V8.84363H34.781Z" fill="#2B2B2B"/>
<path d="M39.6392 5.12294V5.79068H38.0232V8.16614H40.0076V8.84363H37.2859V2.16553H40.0076V2.84286H38.0232V5.12294H39.6392Z" fill="#2B2B2B"/>
<path d="M42.0762 5.54275C42.6244 5.54275 42.889 5.28523 42.889 4.64599V3.75867C42.889 3.14824 42.6715 2.84286 42.133 2.84286H41.4243V5.54275H42.0762ZM42.133 2.16553C43.1725 2.16553 43.6166 2.78572 43.6166 3.79692V4.59829C43.6166 5.65719 43.1253 6.21064 42.0762 6.21064H41.4243V8.84363H40.6871V2.16553H42.133Z" fill="#2B2B2B"/>
<path d="M47.1131 3.77373V4.37472H46.4138V3.73563C46.4138 3.13449 46.1776 2.77197 45.6388 2.77197C45.1098 2.77197 44.8641 3.13449 44.8641 3.73563V7.26538C44.8641 7.86637 45.1098 8.22889 45.6388 8.22889C46.1776 8.22889 46.4138 7.86637 46.4138 7.26538V6.39727H47.1131V7.22729C47.1131 8.23849 46.6407 8.90637 45.62 8.90637C44.6088 8.90637 44.1364 8.23849 44.1364 7.22729V3.77373C44.1364 2.76253 44.6088 2.09464 45.62 2.09464C46.6407 2.09464 47.1131 2.76253 47.1131 3.77373Z" fill="#2B2B2B"/>
<path d="M48.7945 8.84363V2.84286H47.5754V2.16553H50.7507V2.84286H49.5317V8.84363H48.7945Z" fill="#2B2B2B"/>
<path d="M52.8208 8.16629C53.3594 8.16629 53.6051 7.88012 53.6051 7.26008V6.66854C53.6051 5.92447 53.3123 5.67639 52.6791 5.67639H52.0365V8.16629H52.8208ZM52.6035 4.99906C53.1893 4.99906 53.4918 4.80812 53.4918 4.11189V3.72073C53.4918 3.12919 53.2933 2.84286 52.7641 2.84286H52.0365V4.99906H52.6035ZM52.7831 2.16568C53.813 2.16568 54.2195 2.66168 54.2195 3.64439V3.95921C54.2195 4.66504 54.021 5.10389 53.4445 5.28523C54.0872 5.46656 54.3328 5.98161 54.3328 6.71624V7.27913C54.3328 8.28073 53.8509 8.84363 52.8208 8.84363H51.2993V2.16568H52.7831Z" fill="#2B2B2B"/>
<path d="M55.6744 7.26795C55.6744 7.87854 55.9295 8.23145 56.4587 8.23145C56.9975 8.23145 57.2432 7.87854 57.2432 7.26795V3.73804C57.2432 3.13705 56.9975 2.77454 56.4587 2.77454C55.9295 2.77454 55.6744 3.13705 55.6744 3.73804V7.26795ZM54.9469 3.77629C54.9469 2.75549 55.4477 2.0972 56.4587 2.0972C57.4794 2.0972 57.9803 2.75549 57.9803 3.77629V7.22985C57.9803 8.24105 57.4794 8.90894 56.4587 8.90894C55.4477 8.90894 54.9469 8.24105 54.9469 7.22985V3.77629Z" fill="#2B2B2B"/>
<path d="M19.0672 16.7142C19.0672 17.3248 19.3223 17.6777 19.8515 17.6777C20.3902 17.6777 20.636 17.3248 20.636 16.7142V13.1843C20.636 12.5833 20.3902 12.2208 19.8515 12.2208C19.3223 12.2208 19.0672 12.5833 19.0672 13.1843V16.7142ZM18.3397 13.2226C18.3397 12.2018 18.8405 11.5435 19.8515 11.5435C20.8722 11.5435 21.373 12.2018 21.373 13.2226V16.6761C21.373 17.6873 20.8722 18.3552 19.8515 18.3552C18.8405 18.3552 18.3397 17.6873 18.3397 16.6761V13.2226Z" fill="#2B2B2B"/>
<path d="M23.716 15.4112L22.6105 18.2922H21.9111L23.2435 14.8483L21.996 11.6143H22.7615L23.7821 14.2854L24.8123 11.6143H25.5021L24.2642 14.8483L25.5871 18.2922H24.8123L23.716 15.4112Z" fill="#2B2B2B"/>
<path d="M26.8537 16.7142C26.8537 17.3248 27.1088 17.6777 27.638 17.6777C28.1767 17.6777 28.4225 17.3248 28.4225 16.7142V13.1843C28.4225 12.5833 28.1767 12.2208 27.638 12.2208C27.1088 12.2208 26.8537 12.5833 26.8537 13.1843V16.7142ZM26.1262 13.2226C26.1262 12.2018 26.627 11.5435 27.638 11.5435C28.6587 11.5435 29.1595 12.2018 29.1595 13.2226V16.6761C29.1595 17.6873 28.6587 18.3552 27.638 18.3552C26.627 18.3552 26.1262 17.6873 26.1262 16.6761V13.2226Z" fill="#2B2B2B"/>
<path d="M31.2477 14.9914C31.7959 14.9914 32.0605 14.7338 32.0605 14.0946V13.2073C32.0605 12.5968 31.843 12.2915 31.3044 12.2915H30.5957V14.9914H31.2477ZM31.3044 11.6141C32.344 11.6141 32.788 12.2343 32.788 13.2455V14.0469C32.788 15.1058 32.2967 15.6592 31.2477 15.6592H30.5957V18.2922H29.8585V11.6141H31.3044Z" fill="#2B2B2B"/>
<path d="M34.035 16.7142C34.035 17.3248 34.2901 17.6777 34.8193 17.6777C35.3581 17.6777 35.6038 17.3248 35.6038 16.7142V13.1843C35.6038 12.5833 35.3581 12.2208 34.8193 12.2208C34.2901 12.2208 34.035 12.5833 34.035 13.1843V16.7142ZM33.3075 13.2226C33.3075 12.2018 33.8083 11.5435 34.8193 11.5435C35.84 11.5435 36.3409 12.2018 36.3409 13.2226V16.6761C36.3409 17.6873 35.84 18.3552 34.8193 18.3552C33.8083 18.3552 33.3075 17.6873 33.3075 16.6761V13.2226Z" fill="#2B2B2B"/>
<path d="M37.7774 15.2871V18.2922H37.0402V11.6141H37.7774V14.6194H39.4029V11.6141H40.1398V18.2922H39.4029V15.2871H37.7774Z" fill="#2B2B2B"/>
<path d="M42.6339 15.2108L41.6604 18.2922H40.8948V11.6141H41.5471V16.5941L42.133 14.7529L43.1913 11.6141H44.0135V18.2922H43.352V12.9784L42.6339 15.2108Z" fill="#2B2B2B"/>
<path d="M21.3347 22.6716V22.8433C21.3347 23.5302 21.0607 24.0262 20.522 24.2266C21.0796 24.4174 21.3347 24.9326 21.3347 25.6003V26.125C21.3347 27.1363 20.8622 27.8042 19.8415 27.8042C18.8304 27.8042 18.3579 27.1363 18.3579 26.125V25.4763H19.0479V26.1632C19.0479 26.7642 19.2936 27.1267 19.8227 27.1267C20.3614 27.1267 20.5976 26.7738 20.5976 26.1059V25.5813C20.5976 24.9326 20.3046 24.5891 19.747 24.5891H19.4352V23.9212H19.7848C20.2762 23.9212 20.5976 23.5875 20.5976 23.0054V22.7C20.5976 22.0134 20.3614 21.67 19.8227 21.67C19.2936 21.67 19.0479 22.0325 19.0479 22.6333V23.0818H18.3674V22.6621C18.3674 21.6412 18.8304 20.9925 19.8415 20.9925C20.8622 20.9925 21.3347 21.6604 21.3347 22.6716Z" fill="#2B2B2B"/>
<path d="M23.338 26.099C23.3098 26.5761 23.2435 26.8622 23.0356 27.0817H24.7839V21.7392H23.5553L23.338 26.099ZM25.3131 28.6558V27.74H22.6104V28.6558H21.9016V27.0817H22.327C22.5537 26.824 22.6009 26.5188 22.6198 26.1084L22.875 21.0617H25.5304V27.0817H26.0313V28.6558H25.3131Z" fill="#2B2B2B"/>
<path d="M27.3444 26.1632C27.3444 26.7738 27.5995 27.1267 28.1287 27.1267C28.6674 27.1267 28.9132 26.7738 28.9132 26.1632V22.6333C28.9132 22.0325 28.6674 21.67 28.1287 21.67C27.5995 21.67 27.3444 22.0325 27.3444 22.6333V26.1632ZM26.6169 22.6716C26.6169 21.6508 27.1177 20.9925 28.1287 20.9925C29.1494 20.9925 29.6502 21.6508 29.6502 22.6716V26.125C29.6502 27.1363 29.1494 27.8042 28.1287 27.8042C27.1177 27.8042 26.6169 27.1363 26.6169 26.125V22.6716Z" fill="#2B2B2B"/>
<path d="M31.7397 24.4362C32.2879 24.4362 32.5525 24.1787 32.5525 23.5394V22.6521C32.5525 22.0417 32.335 21.7363 31.7965 21.7363H31.0878V24.4362H31.7397ZM31.7965 21.059C32.836 21.059 33.2801 21.6792 33.2801 22.6904V23.4917C33.2801 24.5506 32.7888 25.1041 31.7397 25.1041H31.0878V27.7371H30.3506V21.059H31.7965Z" fill="#2B2B2B"/>
<path d="M34.5258 26.1632C34.5258 26.7738 34.7809 27.1267 35.3101 27.1267C35.8488 27.1267 36.0946 26.7738 36.0946 26.1632V22.6333C36.0946 22.0325 35.8488 21.67 35.3101 21.67C34.7809 21.67 34.5258 22.0325 34.5258 22.6333V26.1632ZM33.7983 22.6716C33.7983 21.6508 34.2991 20.9925 35.3101 20.9925C36.3308 20.9925 36.8316 21.6508 36.8316 22.6716V26.125C36.8316 27.1363 36.3308 27.8042 35.3101 27.8042C34.2991 27.8042 33.7983 27.1363 33.7983 26.125V22.6716Z" fill="#2B2B2B"/>
<path d="M39.0532 27.0597C39.5918 27.0597 39.8375 26.7736 39.8375 26.1535V25.562C39.8375 24.8179 39.5447 24.5697 38.9115 24.5697H38.2689V27.0597H39.0532ZM38.8358 23.8925C39.4216 23.8925 39.7241 23.7016 39.7241 23.0053V22.614C39.7241 22.0226 39.5256 21.7363 38.9964 21.7363H38.2689V23.8925H38.8358ZM39.0155 21.059C40.0453 21.059 40.4518 21.5551 40.4518 22.5378V22.8526C40.4518 23.5585 40.2533 23.9973 39.6769 24.1787C40.3196 24.3598 40.5652 24.875 40.5652 25.6095V26.1726C40.5652 27.1742 40.0832 27.7371 39.0532 27.7371H37.5317V21.059H39.0155Z" fill="#2B2B2B"/>
<path d="M41.6229 22.828H41.3204L41.5568 21.9885H41.2827V21.0631H41.9913V21.9122L41.6229 22.828Z" fill="#2B2B2B"/>
<path d="M44.2596 21.7363C43.7115 21.7363 43.4942 22.0511 43.4942 22.6521V23.2913C43.4942 24.0164 43.8438 24.2072 44.4202 24.2072H44.9778V21.7363H44.2596ZM44.458 24.8845C43.8438 24.8845 43.4942 25.1231 43.4942 25.8768V26.9262C43.4942 27.3745 43.4565 27.5463 43.3713 27.7371H42.6248C42.7381 27.508 42.757 27.2315 42.757 26.9357V25.8958C42.757 25.1804 42.9839 24.6843 43.5792 24.5029C43.0217 24.3217 42.7665 23.8637 42.7665 23.1292V22.5854C42.7665 21.5932 43.2012 21.059 44.2408 21.059H45.715V27.7371H44.9778V24.8845H44.458Z" fill="#2B2B2B"/>
<path d="M20.3802 35.7174C20.1535 36.7192 19.8133 37.2534 18.6131 37.1961V36.5284C19.1801 36.5571 19.4352 36.3757 19.5582 35.8701L19.7094 35.4313L18.1879 30.5084H18.9248L19.5959 32.8268L20.0497 34.5059L20.437 32.8268L21.0323 30.5084H21.7979L20.3802 35.7174Z" fill="#2B2B2B"/>
<path d="M23.4619 34.2832L23.0745 34.9415V37.1833H22.3373V30.5053H23.0745V33.7299L24.8321 30.5053H25.5787L23.9061 33.5488L25.6355 37.1833H24.8795L23.4619 34.2832Z" fill="#2B2B2B"/>
<path d="M27.5906 33.8825C28.1388 33.8825 28.4034 33.6249 28.4034 32.9857V32.0984C28.4034 31.488 28.1859 31.1826 27.6474 31.1826H26.9387V33.8825H27.5906ZM27.6474 30.5053C28.6869 30.5053 29.131 31.1254 29.131 32.1366V32.938C29.131 33.9969 28.6397 34.5504 27.5906 34.5504H26.9387V37.1833H26.2015V30.5053H27.6474Z" fill="#2B2B2B"/>
<path d="M30.5476 35.199H32.0219L31.2753 31.3449L30.5476 35.199ZM30.4531 35.8383L30.198 37.1833H29.5176L30.7838 30.5053H31.8518L33.118 37.1833H32.381L32.1257 35.8383H30.4531Z" fill="#2B2B2B"/>
<path d="M34.4317 37.1851H33.6945V30.507H34.4317V37.1851Z" fill="#2B2B2B"/>
<path d="M35.9251 34.1781V37.1833H35.1879V30.5051H35.9251V33.5104H37.5506V30.5051H38.2875V37.1833H37.5506V34.1781H35.9251Z" fill="#2B2B2B"/>
<path d="M40.7827 34.1019L39.8093 37.1833H39.0437V30.5051H39.6959V35.4852L40.2819 33.6438L41.3402 30.5051H42.1623V37.1833H41.5009V31.8695L40.7827 34.1019Z" fill="#2B2B2B"/>
<path fill-rule="evenodd" clip-rule="evenodd" d="M9.24685 9.28686H8.89651C8.76821 8.6915 8.20413 8.44998 8.20413 8.44998C8.20413 8.44998 8.39221 6.88838 8.48624 6.08594C8.65711 5.21447 9.24685 4.47253 9.24685 4.47253V9.28686ZM9.24685 11.9011H7.81107C7.81107 11.9011 7.81107 11.3661 7.67432 10.9262C7.81107 10.9262 8.71281 10.7922 8.89651 9.94255H9.24685V11.9011ZM6.35809 11.8924C6.35809 11.8924 6.38345 11.1944 7.03779 11.0901C7.09319 11.2713 7.14028 11.491 7.14028 11.8924H6.35809ZM6.3667 13.8769V12.5396H7.03326C7.03326 12.5396 6.96081 13.3202 6.3667 13.8769ZM6.03341 10.9562C6.03341 10.9562 5.46073 10.5638 5.28987 10.4517C5.74722 9.75268 6.03341 8.68297 6.03341 8.68297C6.03341 8.68297 6.3199 9.75268 6.77696 10.4517C6.60594 10.5638 6.03341 10.9562 6.03341 10.9562ZM4.92685 11.8924C4.92685 11.491 4.97364 11.2713 5.02934 11.0901C5.68338 11.1944 5.70858 11.8924 5.70858 11.8924H4.92685ZM5.70013 13.8769C5.10632 13.3202 5.03341 12.5396 5.03341 12.5396H5.70013V13.8769ZM4.25575 11.9011H2.81998V9.94255H3.17032C3.35432 10.7922 4.25575 10.9262 4.39251 10.9262C4.25575 11.3661 4.25575 11.9011 4.25575 11.9011ZM2.81998 4.47253C2.81998 4.47253 3.40971 5.21447 3.58058 6.08594C3.67462 6.88838 3.86254 8.44998 3.86254 8.44998C3.86254 8.44998 3.29847 8.6915 3.17032 9.28686H2.81998V4.47253ZM7.82813 6.03002C7.59734 8.07451 7.49485 8.98042 7.49485 8.98042C7.49485 8.98042 7.54617 8.9635 7.64866 8.9635C7.75115 8.9635 8.29409 9.10126 8.29409 9.59741C8.29409 10.0937 7.84972 10.2618 7.64458 10.2618C7.43945 10.2618 7.42239 10.2274 7.42239 10.2274C7.42239 10.2274 6.41802 8.82103 6.41802 6.7072C6.41802 5.3571 6.50783 4.12297 6.50783 3.42857C6.50783 3.30773 6.50134 2.65204 6.03341 2.12861C5.56534 2.65204 5.5593 3.30773 5.5593 3.42857C5.5593 4.12297 5.64881 5.35665 5.64881 6.7072C5.64881 8.82103 4.64473 10.2274 4.64473 10.2274C4.64473 10.2274 4.62768 10.2618 4.42254 10.2618C4.21741 10.2618 3.77304 10.0934 3.77304 9.59741C3.77304 9.10126 4.31553 8.9635 4.41817 8.9635C4.52066 8.9635 4.57198 8.98042 4.57198 8.98042C4.57198 8.98042 4.46934 8.07451 4.2387 6.02971C3.79009 3.84274 2.16187 3.07901 2.16187 3.07901V12.5396H4.33258C4.33258 12.5396 4.49092 13.8723 5.64881 14.7224C5.64881 14.7224 6.01636 15.0417 6.03341 15.1451C6.05047 15.0417 6.41802 14.7224 6.41802 14.7224C7.57621 13.8728 7.73409 12.5396 7.73409 12.5396H9.90496V3.07931C9.90496 3.07931 8.27704 3.84274 7.82813 6.03002Z" fill="#2B2B2B"/>
<path d="M34.7827 30.0707H34.2908V29.564H34.7827V30.0707Z" fill="#2B2B2B"/>
<path d="M33.8587 30.0707H33.3479V29.564H33.8587V30.0707Z" fill="#2B2B2B"/>
<path d="M14.4817 37.1952H13.7145V19.6336H14.4817V37.1952Z" fill="#FFCB04"/>
<path d="M14.4798 19.668H13.7157V2.20298H14.4798V19.668Z" fill="#2E368E"/>
</g>
</g>
<defs>
<clipPath id="clip0_1_4004">
<rect width="60" height="40" fill="white"/>
</clipPath>
</defs>
</svg>
