<svg width="124" height="124" viewBox="0 0 124 124" fill="none" xmlns="http://www.w3.org/2000/svg">
<g clip-path="url(#clip0_2_888)">
<path d="M108 2H16C8.26801 2 2 8.26801 2 16V108C2 115.732 8.26801 122 16 122H108C115.732 122 122 115.732 122 108V16C122 8.26801 115.732 2 108 2Z" fill="white" stroke="url(#paint0_linear_2_888)" stroke-width="4"/>
<path d="M71.2834 19.6558V16H67.6275H63.9717V19.6558H67.6275H71.2834Z" fill="black"/>
<path d="M63.8825 19.6558H60.2267V23.3117H63.8825V19.6558Z" fill="black"/>
<path d="M60.2267 23.4008H56.5709V27.0567H60.2267V23.4008Z" fill="black"/>
<path d="M63.9717 30.7125V34.4575H67.6275V30.7125H71.2834H75.0283V27.0567H71.2834H67.6275V23.4008H63.9717V27.0567H60.2267V30.7125H63.9717Z" fill="black"/>
<path d="M78.6842 30.7125H75.0283V34.3683H78.6842V30.7125Z" fill="black"/>
<path d="M45.5142 34.4575V38.1133V39.8967V41.7692H49.17V39.8967V38.1133V34.4575H45.5142Z" fill="black"/>
<path d="M67.6275 34.4575V38.1133V39.3617V41.7692H71.2833V39.3617V38.1133V34.4575H67.6275Z" fill="black"/>
<path d="M60.2267 34.4575V30.7125H56.5708V27.0567H52.915V25.5408V23.4008V19.6558H56.5708H60.2267V16H56.5708H52.915H49.17H45.5142V19.6558H49.17V23.4008H45.5142V27.0567H49.17V30.7125H52.915V34.4575V35.3492V38.1133V41.7692H49.17V45.5142H52.915V49.17V52.915V56.5708H56.5708V52.915H60.2267V49.17H56.5708V45.5142V41.7692V38.1133H60.2267V41.7692V45.5142H63.9717V41.7692V38.1133V36.865V34.4575H60.2267Z" fill="black"/>
<path d="M19.6558 45.5142H16V49.17H19.6558V45.5142Z" fill="black"/>
<path d="M41.7692 45.5142H38.1133V49.17H41.7692H45.5142V45.5142H41.7692Z" fill="black"/>
<path d="M71.2833 45.5142H67.6275V49.17H71.2833V45.5142Z" fill="black"/>
<path d="M100.797 45.5142H97.1417V49.17H100.797V45.5142Z" fill="black"/>
<path d="M104.542 49.17H100.797V52.915H104.542V56.5708H108.198V52.915V49.17V45.5142H104.542V49.17Z" fill="black"/>
<path d="M27.0567 49.17V45.5142H23.4008V49.17V52.915H27.0567V49.17Z" fill="black"/>
<path d="M34.3684 49.17H30.7125V52.8258H34.3684V49.17Z" fill="black"/>
<path d="M67.6275 49.17H63.9717V52.8258H67.6275V49.17Z" fill="black"/>
<path d="M86.085 52.915H89.7409V49.17V45.5142H86.085V49.17H82.4292V52.915H86.085Z" fill="black"/>
<path d="M97.1417 49.17H93.4858V52.915V56.5708V60.2267H97.1417V56.5708H100.798V52.915H97.1417V49.17Z" fill="black"/>
<path d="M23.3117 52.915H19.6558V56.5708H23.3117V52.915Z" fill="black"/>
<path d="M82.4292 60.2267V63.9717V67.6275H86.085H89.7409V63.9717H86.085V60.2267H82.4292Z" fill="black"/>
<path d="M104.542 63.9717H100.797V67.6275H104.542V71.2833H108.198V67.6275V63.9717V60.2267H104.542V63.9717Z" fill="black"/>
<path d="M78.6842 67.6275V63.9717H75.0283V60.2267V56.5708H78.6842H82.4292V52.915H78.6842V49.17V45.5142V41.7692V38.1133H75.0283V41.7692V45.5142V49.17H71.2833V52.915V56.5708H67.6275V60.2267H71.2833V63.9717V67.6275H67.6275V71.2833H71.2833H75.0283V67.6275H78.6842Z" fill="black"/>
<path d="M93.4858 67.6275V71.2833H89.7408H86.085H82.4292H78.7733H75.1175V74.9392H71.4617V78.595V82.2508H75.1175V85.9067H71.4617V89.7408V93.3967H75.1175H78.7733V97.0525H82.4292V93.3967H86.085H89.7408V97.0525H86.085V100.708V104.364H89.7408H93.3967V100.708H97.0525V97.0525H93.3967V93.3967V89.7408V86.085V82.4292V78.7733V75.1175H97.0525V71.4617H100.708V67.8058H97.0525H93.4858V67.6275ZM89.7408 82.4292V86.085V89.7408H86.085H82.4292H78.7733V86.085V82.4292V78.7733H82.4292H86.085H89.7408V82.4292Z" fill="black"/>
<path d="M104.453 75.0283H100.797V78.6842H104.453V75.0283Z" fill="black"/>
<path d="M63.9717 78.6842V82.4292V86.085H60.2267V82.4292H56.5708V78.6842V75.0283H60.2267V78.6842H63.9717V75.0283V71.2833V67.6275V63.9717V60.2267V56.5708H60.2267V60.2267H56.5708H52.915H49.17H45.5142V56.5708H49.17V52.915V49.17H45.5142V52.915H41.7692H38.1133V56.5708H41.7692V60.2267H38.1133V56.5708H34.4575H30.7125H27.0567V60.2267H25.1842H23.4008H19.6558V56.5708H16V60.2267V63.9717H19.6558H23.4008V67.6275H19.6558H16V71.2833H19.6558H23.4008V75.0283H19.6558H16V78.6842H19.6558H23.4008H24.7383H27.0567H30.7125H34.4575H35.3492H38.1133H41.7692V75.0283H38.1133H35.3492H34.4575V71.2833H30.7125H27.0567V67.6275H30.7125V63.9717V60.2267H34.4575V63.9717V67.6275V71.2833H36.5975H38.1133H41.7692V67.6275H38.1133V63.9717H41.7692V67.6275H45.5142V63.9717H49.17H52.915H56.5708H60.2267V67.6275V71.2833H56.5708V67.6275H52.915H49.17H45.5142V71.2833H49.17V75.0283H52.915V78.6842H49.17H45.5142V82.4292V86.085H49.17V82.4292H52.915V86.085H56.5708H60.2267V89.7408H63.9717V86.085H67.6275V82.4292V78.6842H63.9717Z" fill="black"/>
<path d="M86.085 82.4292H82.4292V86.085H86.085V82.4292Z" fill="black"/>
<path d="M56.5708 93.4858V97.1417V100.797V104.542H52.915V108.198H56.5708H60.2266V104.542V100.797V97.1417V93.4858V89.7408H56.5708V93.4858Z" fill="black"/>
<path d="M67.6275 89.7408H63.9717V93.3967H67.6275V89.7408Z" fill="black"/>
<path d="M52.915 93.4858V89.7408H49.17V93.4858V97.1417H52.915V93.4858Z" fill="black"/>
<path d="M49.17 97.1417H45.5142V100.798H49.17V97.1417Z" fill="black"/>
<path d="M67.6275 97.1417H63.9717V100.798H67.6275V97.1417Z" fill="black"/>
<path d="M75.0283 100.798H71.2833V104.542H75.0283V108.198H78.6842H82.4292V104.542H78.6842V100.798V97.1417H75.0283V100.798Z" fill="black"/>
<path d="M100.797 100.797H104.542H108.198V97.1417H104.542V93.4858V89.7408V86.085H108.198V82.4292V78.6842H104.542V82.4292V86.085H100.797V89.7408V93.4858H97.1417V97.1417H100.797V100.797Z" fill="black"/>
<path d="M49.17 104.542H45.5142V108.198H49.17V104.542Z" fill="black"/>
<path d="M67.6275 104.542H63.9717V108.198H67.6275V104.542Z" fill="black"/>
<path d="M97.1417 104.542H93.4858V108.198H97.1417V104.542Z" fill="black"/>
<path d="M108.198 104.542H104.542V108.198H108.198V104.542Z" fill="black"/>
<path d="M37.935 41.7692H41.7692V37.935V19.8342V16H37.935H19.8342H16V19.8342V37.935V41.7692H19.8342H37.935ZM19.8342 19.8342H37.935V37.935H19.8342V19.8342Z" fill="black"/>
<path d="M104.364 16H86.2634H82.4292V19.8342V37.935V41.7692H86.2634H104.364H108.198V37.935V19.8342V16H104.364ZM104.364 37.935H86.2634V19.8342H104.364V37.935Z" fill="black"/>
<path d="M19.8342 82.4292H16V86.2633V104.364V108.198H19.8342H37.935H41.7692V104.364V86.2633V82.4292H37.935H19.8342ZM37.935 104.364H19.8342V86.2633H37.935V104.364Z" fill="black"/>
<path d="M34.4575 23.4008H23.4008V34.4575H34.4575V23.4008Z" fill="black"/>
<path d="M100.798 23.4008H89.7408V34.4575H100.798V23.4008Z" fill="black"/>
<path d="M34.4575 89.7408H23.4008V100.797H34.4575V89.7408Z" fill="black"/>
</g>
<defs>
<linearGradient id="paint0_linear_2_888" x1="-199.227" y1="-134.16" x2="128.232" y2="108.232" gradientUnits="userSpaceOnUse">
<stop stop-color="#D3D738"/>
<stop offset="0.741012" stop-color="#69BA43"/>
<stop offset="1" stop-color="#2A90B0"/>
</linearGradient>
<clipPath id="clip0_2_888">
<rect width="124" height="124" fill="white"/>
</clipPath>
</defs>
</svg>
